<?xml version="1.0"?>
<svg width="400" height="74" 
viewBox="0 0 825 152"
xmlns="http://www.w3.org/2000/svg" 
xmlns:svg="http://www.w3.org/2000/svg">
 <g class="layer">
  <title>Layer 1</title>
  <path d="m798.65,68.89c-0.68,-2.61 -1.7,-5.56 -2.49,-7.03c0,0 0.45,-0.46 1.36,0.11c0.9,0.57 6.69,4.54 6.69,4.54c2.95,4.31 4.76,22 4.87,28.36c-2.72,-1.25 -6.58,-3.41 -9.07,-5.79l-1.36,-20.19zm-17.47,-16.45c-4.77,-5.22 -8.73,-10.1 -12.59,-15.88c2.49,-4.76 4.31,-17.35 3.17,-22.23c-0.45,-1.48 -4.54,-6.92 -5.22,-7.71c-1.02,-1.02 -4.3,-4.77 -5.89,-4.77c-0.34,0 -0.68,0.12 -0.8,0.23l0.46,4.2c-4.43,2.83 -10.21,6.69 -15.43,10.54c0,1.48 0.11,3.74 0.23,4.54c0.79,0.68 1.7,1.25 2.72,1.59c2.04,-0.34 8.4,-1.93 10.09,-1.7l-6.23,9.41l-7.15,5.11l-8.96,-2.84c-0.57,-0.11 -1.14,0 -1.48,0.46l-6.57,7.15c-0.34,0.33 -0.57,0.67 -0.57,1.47l-0.23,8.06s-0.11,1.24 -0.11,2.6c0,5.79 2.6,8.51 2.6,8.51l4.32,-6.24c-0.57,-0.91 -1.59,-3.4 -1.82,-4.53c0,-0.23 0.11,-6.93 0.11,-6.93l4.2,-3.07l11.12,7.84s3.06,5.67 6.01,9.07c1.93,2.38 11.57,8.85 16.22,11.57c0.46,2.5 1.48,6.58 2.27,8.73l13.62,13.96l-8.06,10.09c-2.83,1.82 -5.56,5.11 -5.33,8.17l9.3,0l1.02,-5.33l11.12,-12.36c0.57,-0.68 0.57,-1.03 0.23,-2.05l-3.18,-10.66c1.59,-1.82 4.99,-6.35 4.99,-11.8c-0.01,-9.87 -10.78,-12.36 -14.18,-15.2zm-50.14,-20.3c-0.34,0.11 -8.62,2.38 -8.62,2.38s-3.86,1.48 -5.56,2.61c-1.7,1.14 -3.63,3.06 -3.74,4.08l7.37,1.7c1.13,-1.25 2.38,-2.6 3.52,-3.52l1.7,-0.79l6.12,-6.24c0,0 -0.23,-0.34 -0.79,-0.22zm34.82,63.75l10.44,-9.98l4.31,4.3l-11.23,9.53c-0.9,1.13 -1.59,2.95 -2.15,4.09l-8.28,0c0.45,-3.07 4.76,-6.92 6.91,-7.94zm55.48,21.09l-110.83,0l0,-3.63l110.83,0l0,3.63zm-310.6,-51.95c0,-6.8 -2.16,-12.14 -8.05,-12.14c-5.91,0 -8.29,5.34 -8.29,12.14l0,44.81l6.93,0l0,7.14l-37.89,0l0,-7.14l7.03,0l0,-61.71l-7.03,0l0,-6.92l29.83,0l0,11.57l0.34,0c2.83,-6.35 9.42,-13.04 19.97,-13.04c11.12,0 17.92,6.8 20.08,15.76c0.79,3.52 1.02,9.3 1.02,12.25l0,42.09l9.07,0l0,7.14l-33.01,0l0,-51.95zm-153.94,0c0,-6.8 -2.15,-12.14 -8.05,-12.14c-5.9,0 -8.28,5.34 -8.28,12.14l0,44.81l6.92,0l0,7.14l-37.89,0l0,-7.14l7.04,0l0,-61.71l-7.04,0l0,-6.92l29.84,0l0,11.57l0.33,0c2.84,-6.35 9.42,-13.04 19.97,-13.04c11.12,0 17.92,6.8 20.08,15.76c0.8,3.52 1.02,9.3 1.02,12.25l0,42.09l9.08,0l0,7.14l-33.02,0l0,-51.95zm219.05,-16.9l0,56.03c0,3.86 2.5,4.77 4.88,4.77c2.27,0 4.43,-0.79 4.43,-0.79l0,6.91s-4.54,2.84 -14.63,2.84c-11.8,0 -18.72,-5.79 -18.72,-18.04l0,-51.72l-8.06,0l0,-5.11c8.96,-7.14 19.4,-15.31 27.68,-22.22l4.42,0l0,20.41l11.58,0l0,6.92l-11.58,0zm-472.81,-46.28s18.27,18.26 26.66,27.67l0,7.16c-7.82,-8.29 -24.05,-15.21 -39.14,-15.21c-34.14,0 -55.58,25.75 -55.58,57.63c0,31.75 20.3,57.51 55.58,57.51c17.59,0 31.65,-8.29 39.48,-16.79l0,6.8c-10.66,14.64 -30.17,24.17 -54.45,24.17c-43.45,0 -73.39,-31.54 -73.39,-71.69c0,-40.15 33.24,-71.58 73.39,-71.58c10.22,0 19.4,1.7 27.45,4.54l0,-10.21zm348.94,94.95c-3.41,3.96 -8.73,7.02 -16.68,7.02c-6.92,0 -17.58,-3.85 -18.03,-21.43l40.49,0c0.12,-1.36 0.23,-4.09 0.23,-5.45c0,-21.32 -8.73,-37.2 -31.53,-37.2c-22.92,0 -34.6,17.58 -34.6,39.47c0,21.89 11.68,39.13 34.6,39.13c14.75,0 24.04,-6.91 29.49,-17.81l-3.97,-3.73zm-34.71,-21.79c0,-19.96 1.59,-27.45 8.39,-27.45c6.93,0 8.29,7.26 8.51,27.45l-16.9,0zm-333.96,3.86c0,-23.14 2.15,-33.35 9.97,-33.35s9.99,10.21 9.99,33.35c0,23.14 -2.16,33.34 -9.99,33.34s-9.97,-10.2 -9.97,-33.34zm-28.14,0.23c0,22.91 14.06,41.52 38.12,41.52c24.04,0 38.11,-18.61 38.11,-41.52s-14.07,-41.51 -38.11,-41.51c-24.06,-0.01 -38.12,18.59 -38.12,41.51zm129.89,-14.07c0,-6.8 -2.16,-12.14 -8.05,-12.14c-5.9,0 -8.29,5.34 -8.29,12.14l0,44.81l6.92,0l0,7.14l-37.89,0l0,-7.14l7.04,0l0,-61.71l-7.04,0l0,-6.92l29.84,0l0,11.57l0.34,0c2.83,-6.35 9.42,-13.04 19.96,-13.04c11.12,0 17.93,6.8 20.08,15.76c0.79,3.52 1.02,9.31 1.02,12.25l0,42.09l9.08,0l0,7.14l-33.01,0l0,-51.95zm84.74,-43.9c0,6.69 6.01,11.12 14.63,11.12c8.62,0 14.63,-4.43 14.63,-11.12c0,-6.68 -6.01,-11.11 -14.63,-11.11c-8.62,0 -14.63,4.43 -14.63,11.11zm-19.63,27l0,56.03c0,3.86 2.5,4.77 4.88,4.77c2.27,0 4.42,-0.79 4.42,-0.79l0,6.91s-4.53,2.84 -14.63,2.84c-11.79,0 -18.71,-5.79 -18.71,-18.04l0,-51.72l-8.06,0l0,-5.11c8.96,-7.14 19.4,-15.31 27.67,-22.23l4.43,0l0,20.42l9.3,0l0,6.92l-9.3,0zm442.53,61.71l9.3,0l0,7.14l-33.24,0l0,-96.87l-8.28,0l0,-6.91l32.22,0l0,96.64zm-63.98,-30.4c-0.69,-0.68 -2.16,-1.59 -5.22,-1.59c-7.15,0 -8.73,7.04 -8.73,14.29c0,7.15 2.15,12.93 8.27,12.93c2.95,0 4.77,-1.25 5.68,-2.27l0,-23.36zm1.02,28.47l-0.34,0c-4.43,6.23 -10.32,10.43 -19.4,10.43c-12.37,0 -20.08,-10.54 -20.08,-23.13c0,-15.2 10.78,-24.85 28.02,-24.85c7.03,0 10.77,1.6 10.77,1.6l0,-4.78c0,-9.18 -5.67,-14.06 -13.95,-14.06c-11.46,0 -17.35,8.85 -17.35,8.85l-4.2,-5.1c7.6,-11.81 19.28,-17.13 30.17,-17.13c18.39,0 29.27,10.89 29.27,27.44l0,42.66l7.71,0l0,7.14l-30.62,0l0,-9.07zm-364.37,9.07l0,-7.14l6.93,0l0,-61.71l-6.93,0l0,-6.92l30.86,0l0,68.63l7.03,0l0,7.14" id="svg_2"/>
 </g>
</svg>