<?xml version="1.0" encoding="UTF-8"?>
<!DOCTYPE svg PUBLIC "-//W3C//DTD SVG 1.1//EN" "http://www.w3.org/Graphics/SVG/1.1/DTD/svg11.dtd">
<!-- Creator: CorelDRAW -->
<svg xmlns="http://www.w3.org/2000/svg" xml:space="preserve" width="211.667mm" height="58.2082mm" style="shape-rendering:geometricPrecision; text-rendering:geometricPrecision; image-rendering:optimizeQuality; fill-rule:evenodd; clip-rule:evenodd"
viewBox="0 0 211.667 58.2082"
 xmlns:svg="http://www.w3.org/2000/svg"
 version="1.0">
 <defs>
  <style type="text/css">
   <![CDATA[
    .fil2 {fill:#2C2B2E;fill-rule:nonzero}
    .fil1 {fill:#D92826;fill-rule:nonzero}
    .fil0 {fill:white;fill-rule:nonzero}
   ]]>
  </style>
 </defs>
 <g id="Layer_x0020_1">
  <metadata id="CorelCorpID_0Corel-Layer"/>
  <g id="layer1">
   <polygon id="path2504" class="fil0" points="-0.7009,0.0376 211.482,0.0451 211.482,58.7629 -0.6889,58.7569 "/>
   <path id="path2514" class="fil1" d="M54.606 3.4582c-0.024,13.331 -8.0951,24.6101 -18.5104,26.8406l28.8897 0 0 -8.8849 10.4168 0 0 -6.5057 -10.4168 -0.0372 0 -4.7212 11.9531 0 0 -6.6545 -22.3324 -0.0371zm24.3183 0l0 15.9482c0,4.2067 0.7719,6.5191 2.4356,8.3273 2.5855,2.8045 7.3067,3.5316 13.0772,3.5316 5.7719,0 10.5307,-0.7271 13.1147,-3.5316 1.6651,-1.8082 2.4355,-4.1206 2.4355,-8.3273l0 -15.9482 -10.679 0 0 14.6099c0,5.093 -1.5018,6.6916 -4.7588,6.6916 -3.2569,0 -4.7213,-1.5986 -4.7213,-6.6916l0 -14.6099 -10.9039 0zm34.323 0l0 26.8406 22.6696 0 0 -7.0261 -11.5034 0 0 -19.8145 -11.1662 0zm24.8054 0l0 26.8406 15.7002 0c7.9632,0 10.7915,-0.9592 13.8266,-3.4945 2.2497,-1.8647 3.5222,-5.7131 3.5222,-9.6656 0,-4.0283 -1.2905,-7.2819 -3.1475,-9.2567 -3.5342,-3.7309 -8.4684,-4.4238 -16.0749,-4.4238l-13.8266 0zm43.9904 0l-13.1896 26.9521 11.0163 0 1.8735 -4.0149 13.0023 0 1.7611 4.0149 12.3278 0 -13.1896 -26.9521 -13.6018 0zm-32.8616 6.4685l2.8477 0c4.6868,0 7.4941,2.2022 7.4941,6.9889 0,4.7882 -2.8073,6.989 -7.4941,6.989l-2.8477 0 0 -13.9779zm39.1941 1.3755l3.7096 8.9221 -7.7189 0 4.0093 -8.9221zm-189.076 25.4651l0 22.0078 212.195 0 0 -22.0078 -212.195 0z"/>
   <path id="path2516" class="fil2" d="M2.8592 3.4582l0 26.9149c12.7879,-1.6595 20.5713,-14.4195 20.5713,-26.9149l-20.5713 0zm24.4308 0c0,12.4954 -7.7834,25.2554 -20.5713,26.9149 -2.1568,0.2811 4.0258,0.2811 6.1826,0 12.7864,-1.6595 20.5713,-14.4195 20.5713,-26.9149l-6.1826 0zm12.103 0c0,12.4954 -7.7849,25.2554 -20.5713,26.9149 -2.1568,0.2811 4.0258,0.2811 6.1825,0 12.788,-1.6595 20.5714,-14.4195 20.5714,-26.9149l-6.1826 0z"/>
   <path id="path2532" class="fil0" d="M6.5313 48.5891c-2.3756,0 -2.8462,1.7576 -3.2224,3.4944 -0.568,2.6142 -0.4947,3.606 1.9484,3.606 0.5771,0 1.6128,-0.1456 2.0234,-0.223l0.7494 -3.4945 -2.2482 0 -0.2248 1.0781 0.7869 0 -0.3372 1.5242c-0.2383,0.0759 -0.5096,0.1115 -0.7495,0.1115 -0.8273,0 -0.9562,-0.3718 -0.4871,-2.5279 0.2893,-1.3353 0.5576,-2.5279 1.4613,-2.5279 0.7689,0 0.748,0.5517 0.5996,1.1896l1.4613 0c0.4002,-1.4394 -0.3387,-2.2305 -1.7611,-2.2305zm84.9456 0c-2.3756,0 -2.8447,1.7576 -3.2225,3.4944 -0.5665,2.6142 -0.5305,3.606 1.911,3.606 0.5771,0 1.6128,-0.1456 2.0235,-0.223l0.7494 -3.4945 -2.2482 0 -0.2249 1.0781 0.7869 0 -0.3373 1.5242c-0.2383,0.0759 -0.508,0.1115 -0.7494,0.1115 -0.8273,0 -0.9547,-0.3718 -0.4871,-2.5279 0.2893,-1.3353 0.5576,-2.5279 1.4614,-2.5279 0.7689,0 0.7494,0.5517 0.5995,1.1896l1.4614 0c0.3987,-1.4394 -0.2998,-2.2305 -1.7237,-2.2305zm44.4775 0c-2.3951,0 -2.7894,1.7472 -3.185,3.5688 -0.3912,1.8038 -0.7839,3.5316 1.6112,3.5316 1.3565,0 2.2227,-0.5739 2.6229,-2.4163l-1.4238 0c-0.1364,0.5442 -0.2998,1.4126 -0.9743,1.4126 -0.8168,0 -0.7584,-0.7628 -0.3746,-2.5279 0.3822,-1.7651 0.6804,-2.5279 1.4988,-2.5279 0.4331,0 0.4991,0.348 0.2997,1.264l1.4239 0c0.3792,-1.4797 -0.018,-2.3049 -1.4988,-2.3049zm30.2761 0c-2.3951,0 -2.7893,1.7472 -3.185,3.5688 -0.3912,1.8038 -0.7463,3.5316 1.6487,3.5316 2.3937,0 2.7563,-1.7278 3.1476,-3.5316 0.3957,-1.8216 0.7839,-3.5688 -1.6113,-3.5688zm18.548 0c-2.3952,0 -2.7519,1.7472 -3.1476,3.5688 -0.3927,1.8038 -0.7839,3.5316 1.6112,3.5316 2.3937,0 2.7938,-1.7278 3.1851,-3.5316 0.3956,-1.8216 0.7448,-3.5688 -1.6487,-3.5688zm10.1919 0c-2.3756,0 -2.8462,1.7576 -3.2225,3.4944 -0.5681,2.6142 -0.532,3.606 1.911,3.606 0.5771,0 1.6128,-0.1456 2.0235,-0.223l0.7494 -3.4945 -2.2483 0 -0.2248 1.0781 0.7869 0 -0.3373 1.5242c-0.2383,0.0759 -0.5096,0.1115 -0.7494,0.1115 -0.8273,0 -0.9547,-0.3718 -0.4871,-2.5279 0.2908,-1.3353 0.5561,-2.5279 1.4614,-2.5279 0.7689,0 0.7479,0.5517 0.5995,1.1896l1.4614 0c0.4002,-1.4394 -0.3013,-2.2305 -1.7237,-2.2305zm-180.758 0.1115l-1.4988 6.8775 3.8594 0 0.2248 -1.041 -2.3981 0 0.4497 -2.0074 2.1358 0 0.2248 -1.0781 -2.1358 0 0.3747 -1.6729 2.3232 0 0.2248 -1.0781 -3.7845 0zm8.9929 0l-1.4988 6.8775 1.4613 0 0.5996 -2.8254 0.3747 0c1.1151,0 0.8902,0.6662 0.7119,1.4871 -0.0974,0.449 -0.2143,0.9174 -0.1124,1.3383l1.4239 0c-0.072,-0.2871 0.1678,-1.5689 0.2623,-2.0076 0.2698,-1.2401 -0.6656,-1.3368 -0.9743,-1.3754 0.9758,-0.1517 1.4583,-0.7955 1.6487,-1.6729 0.2548,-1.1748 -0.2083,-1.8216 -1.1991,-1.8216l-2.6978 0zm9.5549 0l-1.4988 6.8775 1.4239 0 1.1616 -5.3161 0.1124 5.3161 1.3865 0 2.5104 -5.3161 -1.1615 5.3161 1.4238 0 1.4988 -6.8775 -2.2482 0 -2.1732 4.6841 -0.0376 0 -0.0748 -4.6841 -2.3233 0zm13.6768 0l-3.4098 6.8775 1.4239 0 0.7119 -1.5243 1.986 0 0.0374 1.5243 1.5363 0 -0.3747 -6.8775 -1.911 0zm8.6931 0l-1.4988 6.8775 1.3489 0 1.1242 -5.0187 0.8243 5.0187 1.911 0 1.4988 -6.8775 -1.3864 0 -1.0117 4.7584 -0.0374 0 -0.7869 -4.7584 -1.986 0zm17.0116 0l-1.4988 6.8775 1.4614 0 0.637 -3.0484 1.6862 0 -0.6745 3.0484 1.4613 0 1.4988 -6.8775 -1.4613 0 -0.5996 2.751 -1.6486 0 0.5995 -2.751 -1.4614 0zm10.0422 0l-1.4988 6.8775 1.4613 0 1.4988 -6.8775 -1.4613 0zm17.0116 0l-1.4989 6.8775 1.4614 0 0.637 -3.0484 1.6861 0 -0.6744 3.0484 1.4613 0 1.4988 -6.8775 -1.4613 0 -0.5995 2.751 -1.6862 0 0.5995 -2.751 -1.4238 0zm15.8125 0l-0.2623 1.1524 1.6112 0 -1.2365 5.7251 1.4613 0 1.2366 -5.7251 1.6112 0 0.2623 -1.1524 -4.6838 0zm9.555 0l-1.4988 6.8775 3.8594 0 0.2248 -1.041 -2.3981 0 0.4496 -2.0074 2.1359 0 0.2248 -1.0781 -2.1358 0 0.3747 -1.6729 2.3232 0 0.2247 -1.0781 -3.7844 0zm18.6228 0l-1.4988 6.8775 1.4614 0 0.6744 -3.0484 1.6487 0 -0.6744 3.0484 1.4613 0 1.4988 -6.8775 -1.4613 0 -0.5996 2.751 -1.6486 0 0.5995 -2.751 -1.4614 0zm10.0421 0l-1.4614 6.8775 1.3489 0 1.0867 -5.0187 0.8243 5.0187 1.9111 0 1.4988 -6.8775 -1.349 0 -1.0491 4.7584 -0.0375 0 -0.7869 -4.7584 -1.9859 0zm20.7586 0l-1.4988 6.8775 3.6347 0 0.2247 -1.1153 -2.1732 0 1.2365 -5.7622 -1.4239 0zm28.1029 0l0.8243 4.4982 -0.4871 2.3793 1.4239 0 0.5246 -2.3793 2.9227 -4.4982 -1.4988 0 -1.7237 2.8997 -0.4122 -2.8997 -1.5737 0zm-36.0841 0.9294c0.8184,0 0.7584,0.7628 0.3747,2.5279 -0.3821,1.7651 -0.6445,2.5279 -1.4613,2.5279 -0.8184,0 -0.757,-0.7628 -0.3747,-2.5279 0.3837,-1.7651 0.6445,-2.5279 1.4613,-2.5279zm18.5479 0c0.8183,0 0.7584,0.7628 0.3747,2.5279 -0.3822,1.7651 -0.6445,2.5279 -1.4613,2.5279 -0.8168,0 -0.7569,-0.7628 -0.3748,-2.5279 0.3838,-1.7651 0.6446,-2.5279 1.4614,-2.5279zm-160.111 0.1487l0.637 0c0.4617,0 0.667,0.2335 0.5246,0.8922 -0.0959,0.4387 -0.3597,1.0037 -0.9368,1.0037l-0.6744 0 0.4496 -1.8959zm22.5573 0.2602l0.0749 2.9741 -1.3864 0 1.3115 -2.9741z"/>
  </g>
 </g>
</svg>
