<?xml version="1.0" encoding="UTF-8"?>
<svg id="svg12" width="242" height="70.6689" fill="none" version="1.1" viewBox="0 0 242 70.6689" xmlns="http://www.w3.org/2000/svg">
 <g id="g12" transform="translate(0,-31.0001)" clip-path="url(#clip0_722_599)">
  <path id="path1" d="m0.549194 37.6124c0-3.6525 2.96073-6.6123 6.6132-6.6123h42.154v7.1631h-40.8855v21.4901h33.7234v-8.7366h-26.7245v-6.1413h33.8875l-9e-4 22.0419h-42.154c-3.65247 0-6.6132-2.9608-6.6132-6.6123z" fill="#000000"/>
  <path id="path2" d="m52.9008 31.0001h6.6187v7.1631h-6.6187z" fill="#000000"/>
  <path id="path3" d="m52.9008 44.7754h6.6187v22.0409h-6.6187z" fill="#000000"/>
  <path id="path4" d="m99.0072 31.0001h6.6198v35.9423h-6.6198z" fill="#000000"/>
  <path id="path5" d="m234.706 31.0001v13.7753h-18.793c-3.347 0-6.06 2.7141-6.06 6.0615v12.6738c0 1.8257 1.481 3.3056 3.306 3.3056l28.165 0.1261v-35.9423zm0 28.9573h-17.446v-9.2178h17.446z" fill="#000000"/>
  <path id="path6" d="m136.652 44.7754h-27.421v5.8974h26.241v2.2467h-20.742c-2.928 0-5.322 2.2811-5.5 5.163v3.2231c0 3.0433 2.468 5.5098 5.51 5.5098h27.42v-16.5302c0-3.0423-2.465-5.5098-5.508-5.5098zm-1.179 16.2854h-19.642v-2.613h19.642z" fill="#000000"/>
  <path id="path7" d="m206.954 58.4487v-8.1635c0-3.0423-2.467-5.5098-5.511-5.5098h-21.889c-3.043 0-5.512 2.4675-5.512 5.5098v11.0213c0 3.0433 2.469 5.5098 5.512 5.5098h27.4v-5.7555h-25.858v-2.613h25.858zm-25.858-7.7759h18.832v2.2467h-18.832z" fill="#000000"/>
  <path id="path8" d="m142.408 44.7754h8.445l7.362 13.8495 7.361-13.8495h8.445l-11.432 22.0798h-8.749z" fill="#000000"/>
  <path id="path9" d="m62.6804 51.3886c0-3.6524 2.9598-6.6132 6.6122-6.6132h26.0068v5.8974h-25.3317v2.2467h19.2053c3.6515 0 6.6123 2.9607 6.6123 6.6123v0.6722c0 3.6516-2.9608 6.6123-6.6123 6.6123h-26.4926l-1e-3 -5.7555h26.3629v-2.613h-19.7497c-3.6524 0-6.6122-2.9607-6.6122-6.6122z" fill="#000000"/>
  <path id="path10" d="m0 81.5673c0-4.1653 3.37614-7.5433 7.5423-7.5433h226.916c4.165 0 7.542 3.378 7.542 7.5433v12.5597c0 4.1652-3.377 7.542-7.542 7.542h-226.916c-4.16616 0-7.5423-3.3768-7.5423-7.542z" fill="#000000"/>
  <path id="path11" d="m7.54144 74.5757h226.916c3.861 0 6.99 3.1304 6.99 6.9915v6.0049h-240.897v-6.0049c0-3.8611 3.12949-6.9915 6.99151-6.9915z" fill="#0057b8"/>
  <path id="path12" d="m241.447 88.1228v6.0049c0 3.862-3.129 6.9913-6.99 6.9913h-226.916c-3.86202 0-6.99151-3.1293-6.99151-6.9913v-6.0049z" fill="#fedb00"/>
 </g>
 <defs id="defs12">
  <clipPath id="clip0_722_599">
   <rect id="rect12" transform="translate(0,31.0001)" width="242" height="70.669" fill="#ffffff"/>
  </clipPath>
 </defs>
</svg>
