<?xml version="1.0" encoding="UTF-8" standalone="no"?>
<svg
   width="1886pt"
   height="526pt"
   viewBox="0 0 1886 526"
   version="1.1"
   id="svg29"
   xmlns="http://www.w3.org/2000/svg"
   xmlns:svg="http://www.w3.org/2000/svg">
  <defs
     id="defs33" />
  <path
     d="m 172.52172,194.30813 44.8945,-24.58846 c 0,0 15.20826,-35.52848 48.41119,-51.14796 0,0 -69.88001,11.73411 -93.30569,75.73642"
     style="fill:#3d3938;fill-rule:nonzero;stroke:none;stroke-width:7.0901"
     id="path4" />
  <path
     d="m 221.30159,172.05835 37.10249,30.45161 c 0,0 23.41121,-86.27904 106.16683,-43.73137 l 3.52377,-22.23454 c 0,0 -85.49948,-65.597577 -146.79309,35.5143"
     style="fill:#3d3938;fill-rule:nonzero;stroke:none;stroke-width:7.0901"
     id="path6" />
  <path
     d="m 143.23962,229.43956 h 23.82273 c 0,0 -16.00235,86.25812 72.21974,90.95177 0,0 -65.19345,-14.82539 -30.06203,-133.89649 z"
     style="fill:#60aa30;fill-rule:nonzero;stroke:none;stroke-width:7.0901"
     id="path8" />
  <path
     d="m 215.45829,186.49484 55.04759,45.69568 h -19.13625 c 0,0 -8.18905,57.33761 24.99904,54.23215 0,0 27.31107,0.77991 31.21771,-55.04752 H 291.57694 L 265.43639,208.3607 h 90.53282 c 0,0 -8.70665,45.31991 -12.86854,60.10985 -5.73588,20.45493 -25.34709,46.46141 -67.52608,51.51664 0,0 -72.60196,11.32288 -71.83623,-66.74617 0,0 0.80118,-47.22714 11.71993,-66.74618"
     style="fill:#60aa30;fill-rule:nonzero;stroke:none;stroke-width:7.0901"
     id="path10" />
  <path
     d="m 648.37048,183.75807 5.46647,-24.18433 h -89.37777 c 0,0 -44.50455,3.89247 -54.2747,51.13379 0,0 -25.37545,80.41587 39.82508,80.79874 h 144.41819 l 14.83249,-81.58574 18.38462,69.47585 c 0,0 4.66528,10.13175 17.93085,12.10989 h 50.7651 l 23.41858,-131.93253 h -50.77217 l -16.38523,85.4853 -19.12907,-73.78663 c 0,0 -1.96396,-8.5932 -27.32524,-11.69867 H 667.11669 L 647.2077,263.00408 580.45443,263.784 c 0,0 -25.36127,-3.11965 -23.03572,-25.38964 h 81.96862 l 4.67946,-28.09806 h -81.9757 c 0,0 3.51668,-23.01445 35.14561,-26.53823 z"
     style="fill:#3d3938;fill-rule:nonzero;stroke:none;stroke-width:7.0901"
     id="path12" />
  <path
     d="m 832.24789,159.57374 h 50.73674 L 864.23841,263.784 h 50.36805 l -16.00235,27.71518 h -92.1429 z"
     style="fill:#3d3938;fill-rule:nonzero;stroke:none;stroke-width:7.0901"
     id="path14" />
  <path
     d="m 1104.3233,159.57374 -24.6027,131.92544 h 52.3108 l 13.2797,-82.35857 18.3279,69.46877 c 0,0 2.3468,11.70575 23.447,12.8898 h 45.6673 l 23.4257,-131.92544 h -51.9137 l -14.8396,83.91839 -18.7604,-71.85104 c 0,0 -2.3255,-9.7418 -24.5885,-12.06735 z"
     style="fill:#3d3938;fill-rule:nonzero;stroke:none;stroke-width:7.0901"
     id="path16" />
  <path
     d="m 1561.0559,183.75807 5.0624,-24.18433 h -92.9165 c 0,0 -37.0882,2.71551 -52.6928,51.53083 0,0 -24.9713,72.21973 37.4846,80.4017 h 84.3232 l 4.2825,-28.09806 h -54.2535 c 0,0 -21.483,-1.19113 -23.8086,-26.16245 h 83.1385 l 4.7079,-26.94946 h -81.9899 c 0,0 7.7921,-25.35419 37.0882,-26.14829 z"
     style="fill:#3d3938;fill-rule:nonzero;stroke:none;stroke-width:7.0901"
     id="path18" />
  <path
     d="m 1660.0663,208.87891 h -43.4481 l 4.403,-22.65285 h 43.4622 z m 35.6632,-49.30453 h -119.0711 l -24.1985,131.9255 h 49.1698 l 9.3803,-54.25341 38.6551,54.25341 h 53.0907 l -40.6121,-55.04751 c 35.9256,-1.55982 41.0091,-19.51911 41.0091,-19.51911 l 6.6222,-38.24398 c 3.8925,-19.52613 -14.0455,-19.1149 -14.0455,-19.1149 z"
     style="fill:#3d3938;fill-rule:nonzero;stroke:none;stroke-width:7.0901"
     id="path20" />
  <path
     d="m 1356.7661,220.83927 c -6.6504,50.8289 -53.7996,41.53379 -53.7996,41.53379 l 14.2369,-78.40938 c 51.7223,-5.56573 39.5627,36.87559 39.5627,36.87559 m 53.977,-18.33499 c -0.3687,-39.42094 -35.5144,-42.93054 -35.5144,-42.93054 h -104.6214 l -23.4257,131.92544 h 99.5591 c 66.7533,-8.97607 64.0024,-88.9949 64.0024,-88.9949"
     style="fill:#3d3938;fill-rule:nonzero;stroke:none;stroke-width:7.0901"
     id="path22" />
  <path
     d="m 986.54968,243.22271 18.22862,-34.34443 5.1971,26.01357 c -7.2887,0.51757 -23.42572,8.33086 -23.42572,8.33086 z m 56.47972,-83.64897 h -54.26052 l -77.6791,131.92544 h 48.00704 c 16.01654,-26.93528 54.27468,-34.35861 54.27468,-34.35861 l 7.0121,34.35861 h 52.3107 z"
     style="fill:#3d3938;fill-rule:nonzero;stroke:none;stroke-width:7.0901"
     id="path24" />
  <path
     d="m 458.79121,210.43102 h -44.2493 l 5.20414,-25.48891 h 42.68238 z m 34.59967,-50.85019 H 375.90089 l -23.03573,131.92544 h 48.397 l 8.60029,-54.26051 37.47116,54.26051 h 53.08356 l -39.03808,-55.82034 c 34.35152,1.95688 39.41385,-19.14326 39.41385,-19.14326 l 7.05465,-39.8038 c 1.1486,-16.3994 -14.45671,-17.15804 -14.45671,-17.15804 z"
     style="fill:#3d3938;fill-rule:nonzero;stroke:none;stroke-width:7.0901"
     id="path26" />
  <path
     d="m 1484.6857,319.50506 c -5.7359,0 -10.5075,1.15568 -14.3646,2.76515 0,0.008 0,0.008 -0.07,0.0142 -0.4821,0.20561 -0.9217,0.41832 -1.3755,0.63102 -0.39,0.17726 -0.7728,0.36159 -1.1487,0.56012 -0.4253,0.21979 -0.8294,0.43959 -1.2336,0.67355 -8.2955,4.9489 -11.9468,14.18019 -13.3294,18.93766 -0.6097,2.2901 -0.9004,3.84282 -0.9004,3.84282 l -5.8634,41.27855 h 237.2416 c 7.0405,-0.64519 20.8591,-4.92762 24.1914,-28.21858 l 5.7501,-40.48446 z"
     style="fill:#60aa30;fill-rule:nonzero;stroke:none;stroke-width:7.0901"
     id="path28" />
  <path
     d="m 1554.75,332.74936 h -19.7743 l -16.2433,50.49567 h -8.8911 l 16.2505,-50.49567 h -19.6891 l 2.1127,-6.55125 h 48.3404 z"
     style="fill:#ffffff;fill-rule:nonzero;stroke:none;stroke-width:7.0901"
     id="path30" />
  <path
     d="m 1564.584,328.14789 c 0.4112,-1.27621 1.2833,-2.34682 2.6092,-3.2189 1.3329,-0.87917 2.7579,-1.31166 4.2894,-1.31166 1.567,0 2.7439,0.43249 3.5451,1.29039 0.8011,0.865 0.9925,1.94268 0.5742,3.24017 -0.4111,1.27622 -1.2903,2.33973 -2.6375,3.19055 -1.3542,0.84372 -2.8076,1.26912 -4.3745,1.26912 -1.5598,0 -2.7155,-0.4254 -3.4813,-1.26912 -0.7587,-0.85082 -0.9359,-1.91433 -0.5246,-3.19055 z m -16.7043,55.09714 13.1025,-40.7326 h 8.6712 l -13.1097,40.7326 z"
     style="fill:#ffffff;fill-rule:nonzero;stroke:none;stroke-width:7.0901"
     id="path32" />
  <path
     d="m 1609.0672,349.65924 c -1.177,-0.8579 -3.0203,-1.29039 -5.5585,-1.29039 -3.3609,0 -6.5513,1.31166 -9.5788,3.92082 -3.0204,2.61625 -5.2183,6.06204 -6.5939,10.33737 l -6.6362,20.61799 h -8.6713 l 13.1097,-40.7326 h 8.6641 l -2.666,8.28832 h 0.1773 c 4.41,-5.99113 9.6497,-8.98315 15.7188,-8.98315 1.9781,0 3.4387,0.17725 4.3816,0.55303 z"
     style="fill:#ffffff;fill-rule:nonzero;stroke:none;stroke-width:7.0901"
     id="path34" />
  <path
     d="m 1644.3397,358.94018 c 1.1557,-3.68685 1.0211,-6.52998 -0.397,-8.54357 -1.4109,-2.01358 -3.9917,-3.02037 -7.7352,-3.02037 -3.453,0 -6.7782,1.06351 -9.99,3.19763 -3.2118,2.14121 -5.6934,4.92762 -7.4446,8.36631 z m 6.8137,5.77843 h -34.2452 c -1.255,4.34623 -0.9005,7.70694 1.0493,10.07503 1.9498,2.37518 5.3672,3.55923 10.2239,3.55923 5.4877,0 10.9826,-1.46056 16.4987,-4.38878 l -2.0774,6.4449 c -5.1191,2.53118 -11.2307,3.8003 -18.3421,3.8003 -7.0688,0 -11.9964,-1.87179 -14.7616,-5.60118 -2.7651,-3.73647 -3.0771,-8.91933 -0.943,-15.54858 2.0066,-6.2322 5.8352,-11.37251 11.486,-15.42805 5.6579,-4.04845 11.7128,-6.07622 18.1648,-6.07622 6.4024,0 10.8478,1.70872 13.3436,5.14033 2.5028,3.42451 2.7509,8.21741 0.7728,14.37872 z"
     style="fill:#ffffff;fill-rule:nonzero;stroke:none;stroke-width:7.0901"
     id="path36" />
  <path
     d="m 772.18768,342.64005 h -21.73823 l -5.04106,17.21475 h 20.12878 l -1.70871,5.84934 h -20.14297 l -6.5867,22.50397 h -7.27443 l 15.08772,-51.48829 h 29.01267 z"
     style="fill:#3d3938;fill-rule:nonzero;stroke:none;stroke-width:7.0901"
     id="path38" />
  <path
     d="m 783.87216,362.54196 c -1.82924,6.2251 -1.55273,11.22362 0.82245,14.97428 2.38228,3.75775 6.3669,5.63663 11.96809,5.63663 6.0124,0 11.25198,-1.80088 15.74002,-5.40266 4.48802,-3.59467 7.67856,-8.63574 9.57162,-15.1019 1.94978,-6.65052 1.77253,-11.77666 -0.52466,-15.3926 -2.2972,-3.60886 -6.36691,-5.41684 -12.20915,-5.41684 -5.74298,0 -10.9542,1.90723 -15.63367,5.72171 -4.67946,3.80738 -7.92672,8.79881 -9.7347,14.98138 m -7.79202,0.53175 c 2.439,-8.30959 6.83486,-14.91757 13.19468,-19.83809 6.35981,-4.91344 13.74769,-7.37371 22.15655,-7.37371 7.82746,0 13.42156,2.39647 16.78934,7.21064 3.36071,4.80708 3.91374,11.06764 1.6591,18.77457 -2.45318,8.35213 -6.84196,14.97429 -13.16631,19.87354 -6.33147,4.89927 -13.59882,7.34535 -21.78787,7.34535 -7.99763,0 -13.70517,-2.40355 -17.1155,-7.21063 -3.41034,-4.80709 -3.98463,-11.06764 -1.72999,-18.78167"
     style="fill:#3d3938;fill-rule:nonzero;stroke:none;stroke-width:7.0901"
     id="path40" />
  <path
     d="m 856.65909,342.54079 -5.33174,18.17901 h 8.57901 c 3.31816,0 6.27475,-0.88627 8.86971,-2.65878 2.5879,-1.77253 4.31078,-4.09808 5.15451,-6.97666 0.7799,-2.68714 0.45376,-4.77873 -0.99971,-6.28892 -1.44637,-1.5031 -3.97755,-2.25465 -7.58641,-2.25465 z m 20.45494,45.66732 h -8.57192 l -5.15451,-14.29364 c -1.02806,-2.85731 -2.17666,-4.80708 -3.41743,-5.83514 -1.24786,-1.02808 -2.94947,-1.54565 -5.11196,-1.54565 h -5.23249 l -6.35272,21.67443 h -7.26735 l 15.08772,-51.48829 h 17.15803 c 5.47357,0 9.40857,1.2124 11.80502,3.63013 2.39645,2.41063 2.95657,5.79261 1.68035,10.13884 -2.09157,7.12554 -7.61476,11.76247 -16.56956,13.88241 l -0.0709,0.17017 c 1.36839,0.59557 2.46027,1.45347 3.26145,2.55951 0.80117,1.10606 1.70872,3.00621 2.7155,5.68627 z"
     style="fill:#3d3938;fill-rule:nonzero;stroke:none;stroke-width:7.0901"
     id="path42" />
  <path
     d="m 956.18846,384.67724 c -6.48035,2.92112 -13.25848,4.38877 -20.3344,4.38877 -8.14651,0 -14.01002,-2.35392 -17.6118,-7.06174 -3.60176,-4.70783 -4.25406,-10.99674 -1.94268,-18.85966 2.33264,-7.95508 6.99083,-14.49216 13.99585,-19.61121 6.99792,-5.11904 14.80412,-7.67149 23.40441,-7.67149 6.08331,0 10.97548,0.87918 14.66942,2.65171 l -2.10577,7.17517 c -3.74356,-2.58788 -8.72791,-3.88537 -14.9601,-3.88537 -6.13294,0 -11.7412,1.91433 -16.83898,5.75007 -5.10488,3.83575 -8.57193,8.88389 -10.40827,15.15863 -1.88596,6.4449 -1.53145,11.46468 1.0777,15.04518 2.60916,3.59469 7.02628,5.38848 13.25139,5.38848 4.28951,0 8.1607,-0.75155 11.60649,-2.25465 l 4.0768,-13.93205 h -12.20915 l 1.7229,-5.87769 h 19.51903 z"
     style="fill:#3d3938;fill-rule:nonzero;stroke:none;stroke-width:7.0901"
     id="path44" />
  <path
     d="m 991.58365,342.54079 -5.33175,18.17901 h 8.57902 c 3.31816,0 6.27468,-0.88627 8.86258,-2.65878 2.595,-1.77253 4.3179,-4.09808 5.1545,-6.97666 0.787,-2.68714 0.4609,-4.77873 -0.9926,-6.28892 -1.4464,-1.5031 -3.9775,-2.25465 -7.5864,-2.25465 z m 20.45495,45.66732 h -8.579 l -5.14745,-14.29364 c -1.02807,-2.85731 -2.17666,-4.80708 -3.41743,-5.83514 -1.24786,-1.02808 -2.95656,-1.54565 -5.11196,-1.54565 h -5.23249 l -6.35273,21.67443 h -7.26734 l 15.08772,-51.48829 h 17.15808 c 5.4735,0 9.4085,1.2124 11.805,3.63013 2.3893,2.41063 2.9565,5.79261 1.6803,10.13884 -2.0916,7.12554 -7.6147,11.76247 -16.5766,13.88241 l -0.071,0.17017 c 1.3684,0.59557 2.4602,1.45347 3.2614,2.55951 0.8012,1.10606 1.7087,3.00621 2.7155,5.68627 z"
     style="fill:#3d3938;fill-rule:nonzero;stroke:none;stroke-width:7.0901"
     id="path46" />
  <path
     d="m 1052.7853,388.20101 h -30.2817 l 15.0877,-51.48119 h 29.0056 l -1.73,5.91315 h -21.7383 l -4.8283,16.48446 h 20.1359 l -1.73,5.88478 h -20.1359 l -5.0694,17.31402 h 23.0073 z"
     style="fill:#3d3938;fill-rule:nonzero;stroke:none;stroke-width:7.0901"
     id="path48" />
  <path
     d="m 1096.6943,388.20101 h -30.2818 l 15.0877,-51.48119 h 29.0056 l -1.73,5.91315 h -21.7382 l -4.8283,16.48446 h 20.1358 l -1.7229,5.88478 h -20.1429 l -5.0695,17.31402 h 23.0074 z"
     style="fill:#3d3938;fill-rule:nonzero;stroke:none;stroke-width:7.0901"
     id="path50" />
  <path
     d="m 1156.3008,388.20101 h -8.6145 l -16.5837,-40.04487 c -0.468,-1.13441 -0.78,-2.24755 -0.943,-3.3607 h -0.2198 c -0.1418,1.1486 -0.7445,3.55923 -1.8151,7.21062 l -10.6068,36.19495 h -7.2035 l 15.0877,-51.48119 h 9.125 l 16.0236,39.35004 c 0.7586,1.8576 1.1911,3.04874 1.2833,3.55923 h 0.1489 c 0.1843,-1.46765 0.7941,-3.97045 1.8363,-7.51551 l 10.3728,-35.39376 h 7.1965 z"
     style="fill:#3d3938;fill-rule:nonzero;stroke:none;stroke-width:7.0901"
     id="path52" />
  <path
     d="m 1228.5276,388.20101 h -29.7004 l 15.0877,-51.48119 h 7.2673 l -13.3648,45.59641 h 22.4331 z"
     style="fill:#3d3938;fill-rule:nonzero;stroke:none;stroke-width:7.0901"
     id="path54" />
  <path
     d="m 1276.3787,368.29911 -2.2334,-21.405 c -0.071,-0.68774 -0.01,-1.87887 0.1843,-3.58759 h -0.1914 c -0.7161,1.55274 -1.3755,2.75096 -1.9569,3.58759 l -14.7049,21.405 z m 10.1955,19.909 h -8.0331 l -1.6094,-14.09512 h -23.447 l -9.5503,14.09512 h -8.0331 l 36.5353,-51.4812 h 7.7778 z"
     style="fill:#3d3938;fill-rule:nonzero;stroke:none;stroke-width:7.0901"
     id="path56" />
  <path
     d="m 1343.6779,388.20101 h -8.6145 l -16.5838,-40.04487 c -0.4679,-1.13441 -0.7799,-2.24755 -0.9429,-3.3607 h -0.2199 c -0.1417,1.1486 -0.7515,3.55923 -1.8221,7.21062 l -10.6068,36.19495 h -7.1964 l 15.0877,-51.48119 h 9.1249 l 16.0166,39.35004 c 0.7658,1.8576 1.1982,3.04874 1.2904,3.55923 h 0.1418 c 0.1914,-1.46765 0.8011,-3.97045 1.8435,-7.51551 l 10.3727,-35.39376 h 7.1965 z"
     style="fill:#3d3938;fill-rule:nonzero;stroke:none;stroke-width:7.0901"
     id="path58" />
  <path
     d="m 1381.8155,342.64005 -11.6277,39.68327 h 8.1748 c 7.1539,0 13.2513,-1.7867 18.3066,-5.35302 5.0624,-3.56632 8.5294,-8.56483 10.4154,-14.98846 1.8788,-6.42363 1.2337,-11.25199 -1.9357,-14.49217 -3.1763,-3.23308 -8.1181,-4.84962 -14.8252,-4.84962 z m -20.6252,45.56806 15.0878,-51.48829 h 16.0662 c 8.5293,0 14.9601,2.27592 19.2851,6.82068 4.332,4.53766 5.3742,10.63515 3.1337,18.27826 -2.3326,7.97637 -7.0404,14.36454 -14.1092,19.17162 -7.0618,4.8071 -15.0594,7.21773 -23.9788,7.21773 z"
     style="fill:#3d3938;fill-rule:nonzero;stroke:none;stroke-width:7.0901"
     id="path60" />
</svg>
