<?xml version="1.0" encoding="UTF-8" standalone="no"?>
<svg
   width="1567.0883pt"
   height="204.93738pt"
   viewBox="0 0 1567.0883 204.93738"
   version="1.1"
   id="svg29"
   sodipodi:docname="grenlander-logo.svg"
   inkscape:version="1.4 (86a8ad7, 2024-10-11)"
   xmlns:inkscape="http://www.inkscape.org/namespaces/inkscape"
   xmlns:sodipodi="http://sodipodi.sourceforge.net/DTD/sodipodi-0.dtd"
   xmlns="http://www.w3.org/2000/svg"
   xmlns:svg="http://www.w3.org/2000/svg">
  <sodipodi:namedview
     id="namedview1"
     pagecolor="#ffffff"
     bordercolor="#000000"
     borderopacity="0.25"
     inkscape:showpageshadow="2"
     inkscape:pageopacity="0.0"
     inkscape:pagecheckerboard="0"
     inkscape:deskcolor="#d1d1d1"
     inkscape:document-units="pt"
     inkscape:zoom="0.49939885"
     inkscape:cx="984.18328"
     inkscape:cy="105.12639"
     inkscape:window-width="1920"
     inkscape:window-height="1017"
     inkscape:window-x="-8"
     inkscape:window-y="-8"
     inkscape:window-maximized="1"
     inkscape:current-layer="svg29" />
  <defs
     id="defs33" />
  <path
     d="m 29.2821,78.685862 44.8945,-24.58846 c 0,0 15.20826,-35.52848 48.41119,-51.1479598 0,0 -69.88001,11.7341098 -93.30569,75.7364198"
     style="fill:#3d3938;fill-rule:nonzero;stroke:none;stroke-width:7.0901"
     id="path4" />
  <path
     d="m 78.06197,56.436082 37.10249,30.45161 c 0,0 23.41121,-86.2790398 106.16683,-43.73137 l 3.52377,-22.23454 c 0,0 -85.49948,-65.597577 -146.79309,35.5143"
     style="fill:#3d3938;fill-rule:nonzero;stroke:none;stroke-width:7.0901"
     id="path6" />
  <path
     d="m 0,113.81729 h 23.82273 c 0,0 -16.00235,86.25812 72.21974,90.95177 0,0 -65.19345,-14.82539 -30.06203,-133.896488 z"
     style="fill:#60aa30;fill-rule:nonzero;stroke:none;stroke-width:7.0901"
     id="path8" />
  <path
     d="m 72.21867,70.872572 55.04759,45.695678 h -19.13625 c 0,0 -8.18905,57.33761 24.99904,54.23215 0,0 27.31107,0.77991 31.21771,-55.04752 H 148.33732 L 122.19677,92.738432 h 90.53282 c 0,0 -8.70665,45.319908 -12.86854,60.109848 -5.73588,20.45493 -25.34709,46.46141 -67.52608,51.51664 0,0 -72.60196,11.32288 -71.83623,-66.74617 0,0 0.80118,-47.227138 11.71993,-66.746178"
     style="fill:#60aa30;fill-rule:nonzero;stroke:none;stroke-width:7.0901"
     id="path10" />
  <path
     d="m 505.13086,68.135802 5.46647,-24.18433 h -89.37777 c 0,0 -44.50455,3.89247 -54.2747,51.13379 0,0 -25.37545,80.415868 39.82508,80.798738 h 144.41819 l 14.83249,-81.585738 18.38462,69.475848 c 0,0 4.66528,10.13175 17.93085,12.10989 h 50.7651 L 676.51977,43.951472 H 625.7476 L 609.36237,129.43677 590.2333,55.650142 c 0,0 -1.96396,-8.5932 -27.32524,-11.69867 h -39.03099 l -19.90899,103.430338 -66.75327,0.77992 c 0,0 -25.36127,-3.11965 -23.03572,-25.38964 h 81.96862 l 4.67946,-28.098058 h -81.9757 c 0,0 3.51668,-23.01445 35.14561,-26.53823 z"
     style="fill:#3d3938;fill-rule:nonzero;stroke:none;stroke-width:7.0901"
     id="path12" />
  <path
     d="m 689.00827,43.951472 h 50.73674 L 720.99879,148.16173 h 50.36805 l -16.00235,27.71518 h -92.1429 z"
     style="fill:#3d3938;fill-rule:nonzero;stroke:none;stroke-width:7.0901"
     id="path14" />
  <path
     d="m 961.08368,43.951472 -24.6027,131.925438 h 52.3108 l 13.27972,-82.358568 18.3279,69.468768 c 0,0 2.3468,11.70575 23.447,12.8898 h 45.6673 l 23.4257,-131.925438 h -51.9137 l -14.8396,83.918388 -18.7604,-71.851038 c 0,0 -2.3255,-9.7418 -24.5885,-12.06735 z"
     style="fill:#3d3938;fill-rule:nonzero;stroke:none;stroke-width:7.0901"
     id="path16" />
  <path
     d="m 1417.8163,68.135802 5.0624,-24.18433 h -92.9165 c 0,0 -37.0882,2.71551 -52.6928,51.53083 0,0 -24.9713,72.219728 37.4846,80.401698 h 84.3232 l 4.2825,-28.09806 h -54.2535 c 0,0 -21.483,-1.19113 -23.8086,-26.16245 h 83.1385 l 4.7079,-26.949458 h -81.9899 c 0,0 7.7921,-25.35419 37.0882,-26.14829 z"
     style="fill:#3d3938;fill-rule:nonzero;stroke:none;stroke-width:7.0901"
     id="path18" />
  <path
     d="m 1516.8267,93.256642 h -43.4481 l 4.403,-22.65285 h 43.4622 z m 35.6632,-49.30453 h -119.0711 l -24.1985,131.925498 h 49.1698 l 9.3803,-54.25341 38.6551,54.25341 h 53.0907 l -40.6121,-55.04751 c 35.9256,-1.55982 41.0091,-19.51911 41.0091,-19.51911 l 6.6222,-38.243978 c 3.8925,-19.52613 -14.0455,-19.1149 -14.0455,-19.1149 z"
     style="fill:#3d3938;fill-rule:nonzero;stroke:none;stroke-width:7.0901"
     id="path20" />
  <path
     d="m 1213.5265,105.217 c -6.6504,50.8289 -53.7996,41.53379 -53.7996,41.53379 l 14.2369,-78.409378 c 51.7223,-5.56573 39.5627,36.875588 39.5627,36.875588 m 53.977,-18.334988 c -0.3687,-39.42094 -35.5144,-42.93054 -35.5144,-42.93054 H 1127.3677 L 1103.942,175.87691 h 99.5591 c 66.7533,-8.97607 64.0024,-88.994898 64.0024,-88.994898"
     style="fill:#3d3938;fill-rule:nonzero;stroke:none;stroke-width:7.0901"
     id="path22" />
  <path
     d="m 843.31006,127.60044 18.22862,-34.344428 5.1971,26.013568 c -7.2887,0.51757 -23.42572,8.33086 -23.42572,8.33086 z m 56.47972,-83.648968 h -54.26052 l -77.6791,131.925438 h 48.00704 c 16.01654,-26.93528 54.27468,-34.35861 54.27468,-34.35861 l 7.0121,34.35861 h 52.3107 z"
     style="fill:#3d3938;fill-rule:nonzero;stroke:none;stroke-width:7.0901"
     id="path24" />
  <path
     d="m 315.55159,94.808752 h -44.2493 l 5.20414,-25.48891 h 42.68238 z m 34.59967,-50.85019 H 232.66127 L 209.62554,175.884 h 48.397 l 8.60029,-54.26051 37.47116,54.26051 h 53.08356 l -39.03808,-55.82034 c 34.35152,1.95688 39.41385,-19.14326 39.41385,-19.14326 l 7.05465,-39.803798 c 1.1486,-16.3994 -14.45671,-17.15804 -14.45671,-17.15804 z"
     style="fill:#3d3938;fill-rule:nonzero;stroke:none;stroke-width:7.0901"
     id="path26" />
</svg>
