<?xml version="1.0" encoding="UTF-8" standalone="no"?>
<!-- Created with Inkscape (http://www.inkscape.org/) -->

<svg
   xmlns:dc="http://purl.org/dc/elements/1.1/"
   xmlns:cc="http://creativecommons.org/ns#"
   xmlns:rdf="http://www.w3.org/1999/02/22-rdf-syntax-ns#"
   xmlns:svg="http://www.w3.org/2000/svg"
   xmlns="http://www.w3.org/2000/svg"
   xmlns:sodipodi="http://sodipodi.sourceforge.net/DTD/sodipodi-0.dtd"
   xmlns:inkscape="http://www.inkscape.org/namespaces/inkscape"
   width="307.552"
   height="38.456173"
   id="svg2"
   version="1.1"
   inkscape:version="0.48.4 r9939"
   sodipodi:docname="Nouveau document 1">
  <defs
     id="defs4">
    <clipPath
       id="clipPath4275"
       clipPathUnits="userSpaceOnUse">
      <path
         id="path4277"
         d="m 0,0 575.997,0 0,8.992 L 0,8.992 0,0 z"
         inkscape:connector-curvature="0" />
    </clipPath>
    <clipPath
       id="clipPath4263"
       clipPathUnits="userSpaceOnUse">
      <path
         id="path4265"
         d="m 0,0 575.998,0 0,287.991 L 0,287.991 0,0 z"
         inkscape:connector-curvature="0" />
    </clipPath>
    <clipPath
       id="clipPath4231"
       clipPathUnits="userSpaceOnUse">
      <path
         id="path4233"
         d="M 0,576 576,576 576,0 0,0 0,576 z"
         inkscape:connector-curvature="0" />
    </clipPath>
    <clipPath
       id="clipPath4199"
       clipPathUnits="userSpaceOnUse">
      <path
         id="path4201"
         d="M 0,576 576,576 576,0 0,0 0,576 z"
         inkscape:connector-curvature="0" />
    </clipPath>
    <clipPath
       id="clipPath4167"
       clipPathUnits="userSpaceOnUse">
      <path
         id="path4169"
         d="M 0,576 576,576 576,0 0,0 0,576 z"
         inkscape:connector-curvature="0" />
    </clipPath>
    <clipPath
       id="clipPath4135"
       clipPathUnits="userSpaceOnUse">
      <path
         id="path4137"
         d="M 0,576 576,576 576,0 0,0 0,576 z"
         inkscape:connector-curvature="0" />
    </clipPath>
    <clipPath
       id="clipPath4099"
       clipPathUnits="userSpaceOnUse">
      <path
         id="path4101"
         d="M 0,576 576,576 576,0 0,0 0,576 z"
         inkscape:connector-curvature="0" />
    </clipPath>
    <clipPath
       id="clipPath3947"
       clipPathUnits="userSpaceOnUse">
      <path
         id="path3949"
         d="M 0,576 576,576 576,0 0,0 0,576 z"
         inkscape:connector-curvature="0" />
    </clipPath>
    <clipPath
       id="clipPath3865"
       clipPathUnits="userSpaceOnUse">
      <path
         id="path3867"
         d="M 0,576 576,576 576,0 0,0 0,576 z"
         inkscape:connector-curvature="0" />
    </clipPath>
    <clipPath
       id="clipPath3825"
       clipPathUnits="userSpaceOnUse">
      <path
         id="path3827"
         d="M 0,576 576,576 576,0 0,0 0,576 z"
         inkscape:connector-curvature="0" />
    </clipPath>
    <clipPath
       id="clipPath3575"
       clipPathUnits="userSpaceOnUse">
      <path
         id="path3577"
         d="M 0,576 576,576 576,0 0,0 0,576 z"
         inkscape:connector-curvature="0" />
    </clipPath>
    <linearGradient
       id="linearGradient3557"
       spreadMethod="pad"
       gradientTransform="matrix(80.417969,0,0,-80.417969,40.835449,480.34033)"
       gradientUnits="userSpaceOnUse"
       y2="0"
       x2="1"
       y1="0"
       x1="0">
      <stop
         id="stop3559"
         offset="0"
         style="stop-opacity:1;stop-color:#f05e1c" />
      <stop
         id="stop3561"
         offset="0.539322"
         style="stop-opacity:1;stop-color:#fbc680" />
      <stop
         id="stop3563"
         offset="0.539322"
         style="stop-opacity:1;stop-color:#fbc680" />
      <stop
         id="stop3565"
         offset="0.893265"
         style="stop-opacity:1;stop-color:#f05e1c" />
      <stop
         id="stop3567"
         offset="1"
         style="stop-opacity:1;stop-color:#f05e1c" />
    </linearGradient>
    <linearGradient
       id="linearGradient3533"
       spreadMethod="pad"
       gradientTransform="matrix(0,-4.3886719,-4.3886719,0,75.391113,465.79053)"
       gradientUnits="userSpaceOnUse"
       y2="0"
       x2="1"
       y1="0"
       x1="0">
      <stop
         id="stop3535"
         offset="0"
         style="stop-opacity:1;stop-color:#ffffff" />
      <stop
         id="stop3537"
         offset="0.803375"
         style="stop-opacity:1;stop-color:#c4c5c5" />
      <stop
         id="stop3539"
         offset="0.803375"
         style="stop-opacity:1;stop-color:#c4c5c5" />
      <stop
         id="stop3541"
         offset="1"
         style="stop-opacity:1;stop-color:#c4c5c5" />
    </linearGradient>
    <clipPath
       id="clipPath3437"
       clipPathUnits="userSpaceOnUse">
      <path
         id="path3439"
         d="M 0,576 576,576 576,0 0,0 0,576 z"
         inkscape:connector-curvature="0" />
    </clipPath>
    <linearGradient
       id="linearGradient3421"
       spreadMethod="pad"
       gradientTransform="matrix(0,-5.5424805,-5.5424805,0,74.974609,559.29346)"
       gradientUnits="userSpaceOnUse"
       y2="0"
       x2="1"
       y1="0"
       x1="0">
      <stop
         id="stop3423"
         offset="0"
         style="stop-opacity:1;stop-color:#ffffff" />
      <stop
         id="stop3425"
         offset="0.803375"
         style="stop-opacity:1;stop-color:#d6d7d5" />
      <stop
         id="stop3427"
         offset="0.803375"
         style="stop-opacity:1;stop-color:#d6d7d5" />
      <stop
         id="stop3429"
         offset="1"
         style="stop-opacity:1;stop-color:#d6d7d5" />
    </linearGradient>
    <clipPath
       id="clipPath3401"
       clipPathUnits="userSpaceOnUse">
      <path
         id="path3403"
         d="M 0,576 576,576 576,0 0,0 0,576 z"
         inkscape:connector-curvature="0" />
    </clipPath>
    <linearGradient
       id="linearGradient3385"
       spreadMethod="pad"
       gradientTransform="matrix(0,-5.5429687,-5.5429687,0,28.997559,513.14209)"
       gradientUnits="userSpaceOnUse"
       y2="0"
       x2="1"
       y1="0"
       x1="0">
      <stop
         id="stop3387"
         offset="0"
         style="stop-opacity:1;stop-color:#ffffff" />
      <stop
         id="stop3389"
         offset="0.803375"
         style="stop-opacity:1;stop-color:#d6d7d5" />
      <stop
         id="stop3391"
         offset="0.803375"
         style="stop-opacity:1;stop-color:#d6d7d5" />
      <stop
         id="stop3393"
         offset="1"
         style="stop-opacity:1;stop-color:#d6d7d5" />
    </linearGradient>
    <clipPath
       id="clipPath3365"
       clipPathUnits="userSpaceOnUse">
      <path
         id="path3367"
         d="M 0,576 576,576 576,0 0,0 0,576 z"
         inkscape:connector-curvature="0" />
    </clipPath>
    <linearGradient
       id="linearGradient3349"
       spreadMethod="pad"
       gradientTransform="matrix(0,-5.543457,-5.543457,0,120.95898,513.12061)"
       gradientUnits="userSpaceOnUse"
       y2="0"
       x2="1"
       y1="0"
       x1="0">
      <stop
         id="stop3351"
         offset="0"
         style="stop-opacity:1;stop-color:#ffffff" />
      <stop
         id="stop3353"
         offset="0.803375"
         style="stop-opacity:1;stop-color:#d6d7d5" />
      <stop
         id="stop3355"
         offset="0.803375"
         style="stop-opacity:1;stop-color:#d6d7d5" />
      <stop
         id="stop3357"
         offset="1"
         style="stop-opacity:1;stop-color:#d6d7d5" />
    </linearGradient>
    <clipPath
       id="clipPath3325"
       clipPathUnits="userSpaceOnUse">
      <path
         id="path3327"
         d="M 0,576 576,576 576,0 0,0 0,576 z"
         inkscape:connector-curvature="0" />
    </clipPath>
    <linearGradient
       id="linearGradient3309"
       spreadMethod="pad"
       gradientTransform="matrix(0,-31.731934,-31.731934,0,75.165527,541.8833)"
       gradientUnits="userSpaceOnUse"
       y2="0"
       x2="1"
       y1="0"
       x1="0">
      <stop
         id="stop3311"
         offset="0"
         style="stop-opacity:1;stop-color:#ffffff" />
      <stop
         id="stop3313"
         offset="0.848312"
         style="stop-opacity:1;stop-color:#d6d7d5" />
      <stop
         id="stop3315"
         offset="0.848312"
         style="stop-opacity:1;stop-color:#d6d7d5" />
      <stop
         id="stop3317"
         offset="1"
         style="stop-opacity:1;stop-color:#d6d7d5" />
    </linearGradient>
    <clipPath
       id="clipPath3273"
       clipPathUnits="userSpaceOnUse">
      <path
         id="path3275"
         d="M 0,576 576,576 576,0 0,0 0,576 z"
         inkscape:connector-curvature="0" />
    </clipPath>
    <clipPath
       id="clipPath3261"
       clipPathUnits="userSpaceOnUse">
      <path
         id="path3263"
         d="m 0,288.038 575.997,0 0,9 -575.997,0 0,-9 z"
         inkscape:connector-curvature="0" />
    </clipPath>
    <clipPath
       id="clipPath3157"
       clipPathUnits="userSpaceOnUse">
      <path
         id="path3159"
         d="M 0,576 576,576 576,0 0,0 0,576 z"
         inkscape:connector-curvature="0" />
    </clipPath>
    <clipPath
       id="clipPath3001"
       clipPathUnits="userSpaceOnUse">
      <path
         id="path3003"
         d="M 0,576 576,576 576,0 0,0 0,576 z"
         inkscape:connector-curvature="0" />
    </clipPath>
  </defs>
  <sodipodi:namedview
     id="base"
     pagecolor="#ffffff"
     bordercolor="#666666"
     borderopacity="1.0"
     inkscape:pageopacity="0.0"
     inkscape:pageshadow="2"
     inkscape:zoom="1"
     inkscape:cx="263.43399"
     inkscape:cy="5.9093015"
     inkscape:document-units="px"
     inkscape:current-layer="layer1"
     showgrid="false"
     fit-margin-top="0"
     fit-margin-left="0"
     fit-margin-right="0"
     fit-margin-bottom="0"
     inkscape:window-width="1680"
     inkscape:window-height="998"
     inkscape:window-x="-8"
     inkscape:window-y="-8"
     inkscape:window-maximized="1" />
  <metadata
     id="metadata7">
    <rdf:RDF>
      <cc:Work
         rdf:about="">
        <dc:format>image/svg+xml</dc:format>
        <dc:type
           rdf:resource="http://purl.org/dc/dcmitype/StillImage" />
        <dc:title></dc:title>
      </cc:Work>
    </rdf:RDF>
  </metadata>
  <g
     inkscape:label="Calque 1"
     inkscape:groupmode="layer"
     id="layer1"
     transform="translate(-44.022988,-163.55233)">
    <g
       id="g5572"
       transform="matrix(1.5489746,0,0,1.5489746,-751.34545,-136.00704)">
      <g
         transform="matrix(1.25,0,0,-1.25,572.58912,197.3493)"
         id="g3005">
        <path
           id="path3007"
           style="fill:#231f20;fill-opacity:1;fill-rule:nonzero;stroke:none"
           d="m 0,0 c -0.043,-0.146 -1.607,-5.264 -1.607,-5.264 l -5.004,0 L -5,0 -10.725,0 c 0,0 -4.328,-14.137 -4.408,-14.404 l 5.725,0 c 0.041,0.146 1.847,6.039 1.847,6.039 l 5.002,0 c 0,0 -1.765,-5.776 -1.845,-6.039 l 5.724,0 C 1.365,-14.256 5.645,-0.27 5.727,0 L 0,0 z"
           inkscape:connector-curvature="0" />
      </g>
      <g
         transform="matrix(1.25,0,0,-1.25,610.22338,199.30493)"
         id="g3009">
        <path
           id="path3011"
           style="fill:#231f20;fill-opacity:1;fill-rule:nonzero;stroke:none"
           d="m 0,0 -0.264,-0.197 0.541,1.761 -5.724,0 c 0,0 -4.324,-14.134 -4.41,-14.404 l 5.724,0 c 0.049,0.149 2.664,8.697 2.664,8.697 0.369,1.209 1.317,2.024 2.352,2.024 l 1.467,0 c 0.464,0 0.826,-0.158 1.048,-0.457 0.161,-0.219 0.243,-0.506 0.243,-0.84 0,-0.24 -0.041,-0.504 -0.129,-0.783 0,0 -2.305,-7.539 -2.641,-8.641 l 5.723,0 c 0.049,0.149 3.111,10.152 3.111,10.152 0.086,0.292 0.215,0.805 0.215,1.391 0,0.598 -0.131,1.27 -0.566,1.856 C 8.717,1.422 7.592,1.855 6.004,1.855 2.947,1.855 0.928,0.691 0,0"
           inkscape:connector-curvature="0" />
      </g>
      <g
         transform="matrix(1.25,0,0,-1.25,581.886,198.6433)"
         id="g3013">
        <path
           id="path3015"
           style="fill:#231f20;fill-opacity:1;fill-rule:nonzero;stroke:none"
           d="m 0,0 c 0.053,-0.178 0.826,-2.852 0.887,-3.061 0.506,0.211 2.65,1.051 4.506,1.051 1.769,0 2.771,-0.238 3.152,-0.752 C 8.736,-3.021 8.77,-3.35 8.643,-3.766 L 8.285,-4.938 8.18,-4.906 c -2.41,0.797 -4.246,0.771 -4.262,0.769 -1.914,0 -3.637,-0.476 -4.981,-1.379 -1.283,-0.865 -2.201,-2.097 -2.652,-3.564 -0.394,-1.293 -0.295,-2.397 0.289,-3.184 0.68,-0.916 2.014,-1.4 3.867,-1.4 1.756,0 3.661,0.451 5.373,1.273 l 0.221,0.106 c 0,0 -0.267,-0.879 -0.332,-1.084 l 5.727,0 c 0.041,0.148 3.049,9.957 3.049,9.957 0.123,0.412 0.185,0.805 0.185,1.178 0,0.627 -0.178,1.187 -0.527,1.662 C 13.217,0.67 11.096,1.328 8,1.328 4.209,1.328 0.621,0.205 0,0 m 4.535,-7.086 c 0.436,0 1.932,-0.033 2.852,-0.467 L 7.471,-7.592 6.828,-9.688 6.785,-9.707 c -0.914,-0.428 -2.199,-0.713 -3.203,-0.713 -0.963,0 -1.637,0.225 -1.951,0.649 -0.129,0.175 -0.193,0.382 -0.193,0.613 0,0.138 0.019,0.285 0.066,0.435 0.314,1.026 1.447,1.637 3.031,1.637"
           inkscape:connector-curvature="0" />
      </g>
      <g
         transform="matrix(1.25,0,0,-1.25,638.114,197.25655)"
         id="g3017">
        <path
           id="path3019"
           style="fill:#231f20;fill-opacity:1;fill-rule:nonzero;stroke:none"
           d="M 0,0 C -0.053,-0.045 -5.486,-4.322 -5.486,-4.322 L -4.154,0 -9.871,0 c 0,0 -4.395,-14.354 -4.477,-14.623 l 5.719,0 c 0.047,0.146 1.816,5.941 1.816,5.941 0,0 4.11,-5.851 4.172,-5.941 l 6.108,0 c -0.225,0.322 -5.246,7.488 -5.246,7.488 0,0 8.217,6.776 8.656,7.135 L 0,0 z"
           inkscape:connector-curvature="0" />
      </g>
      <g
         transform="matrix(1.25,0,0,-1.25,641.09013,206.3923)"
         id="g3021">
        <path
           id="path3023"
           style="fill:#231f20;fill-opacity:1;fill-rule:nonzero;stroke:none"
           d="m 0,0 0,0 c -0.621,-2.031 -0.389,-3.938 0.668,-5.359 1.187,-1.606 3.324,-2.493 6.01,-2.493 6.324,0 9.892,2.442 11.568,7.916 C 18.869,2.096 18.631,4 17.58,5.422 16.395,7.029 14.254,7.914 11.568,7.914 5.754,7.914 1.537,5.027 0,0 m 5.598,-3.205 c -0.5,0.672 -0.514,1.74 -0.047,3.266 0.564,1.849 1.855,4.056 4.791,4.056 1.125,0 1.877,-0.277 2.303,-0.853 0.5,-0.672 0.515,-1.744 0.048,-3.266 -0.566,-1.852 -1.857,-4.059 -4.791,-4.059 -1.123,0 -1.879,0.28 -2.304,0.856"
           inkscape:connector-curvature="0" />
      </g>
      <g
         transform="matrix(1.25,0,0,-1.25,664.94262,206.3923)"
         id="g3025">
        <path
           id="path3027"
           style="fill:#231f20;fill-opacity:1;fill-rule:nonzero;stroke:none"
           d="m 0,0 0,0 c -0.621,-2.031 -0.385,-3.938 0.668,-5.359 1.186,-1.606 3.324,-2.493 6.014,-2.493 6.324,0 9.892,2.442 11.568,7.916 C 18.871,2.096 18.633,4 17.58,5.422 16.395,7.029 14.26,7.914 11.566,7.914 5.756,7.914 1.539,5.027 0,0 m 10.342,4.117 c 1.125,0 1.881,-0.277 2.306,-0.853 0.497,-0.674 0.516,-1.744 0.047,-3.266 -0.566,-1.852 -1.857,-4.059 -4.793,-4.059 -1.125,0 -1.877,0.28 -2.302,0.856 -0.498,0.672 -0.514,1.742 -0.049,3.266 0.566,1.849 1.857,4.056 4.791,4.056"
           inkscape:connector-curvature="0" />
      </g>
      <g
         transform="matrix(1.25,0,0,-1.25,703.90262,197.09793)"
         id="g3029">
        <path
           id="path3031"
           style="fill:#231f20;fill-opacity:1;fill-rule:nonzero;stroke:none"
           d="M 0,0 C -0.059,-0.049 -5.566,-4.699 -5.566,-4.699 L -4.135,0 -9.854,0 c 0,0 -4.464,-14.584 -4.546,-14.855 l 5.716,0 c 0.047,0.148 1.846,6.033 1.846,6.033 0,0 4.424,-5.953 4.49,-6.033 l 6.276,0 c -0.246,0.326 -5.625,7.554 -5.625,7.554 0,0 7.761,6.94 8.201,7.301 L 0,0 z"
           inkscape:connector-curvature="0" />
      </g>
      <g
         transform="matrix(1.25,0,0,-1.25,555.80687,194.2683)"
         id="g3033">
        <path
           id="path3035"
           style="fill:#f25c19;fill-opacity:1;fill-rule:nonzero;stroke:none"
           d="m 0,0 -0.076,0.701 -4.852,0 c 0.559,-5.728 -3.394,-12.117 -9.021,-13.639 -0.004,-10e-4 -0.008,-10e-4 -0.012,-0.003 -0.031,-0.008 -0.102,-0.012 -0.109,0.072 -0.006,0.029 0.009,0.06 0.033,0.076 l -0.004,0 c 4.693,3.133 7.168,8.18 6.742,13.494 l -4.75,0 c 0.205,-4.67 -2.926,-8.918 -7.719,-10.644 -0.031,-0.006 -0.101,-0.01 -0.109,0.072 -0.004,0.031 0.016,0.055 0.035,0.07 l -0.002,0 c 3.461,2.373 5.547,5.901 5.422,10.502 l -4.748,0 c -0.047,-5.51 -4.998,-9.355 -14.691,-9.355 0.138,-0.076 0.273,-0.153 0.408,-0.229 6.307,-3.447 9.596,-5.566 14.25,-9.359 0.717,-0.615 1.713,-0.951 2.717,-0.916 C -3.926,-18.281 0.596,-7.262 0,0"
           inkscape:connector-curvature="0" />
      </g>
    </g>
    <text
       id="text3739"
       x="30.92775"
       y="621.74078"
       style="font-size:15px">
      <tspan
         style="font-size:13.75px;font-variant:normal;font-weight:normal;font-stretch:normal;writing-mode:lr-tb;fill:#231f20;fill-opacity:1;fill-rule:nonzero;stroke:none;font-family:Wingdings;-inkscape-font-specification:Wingdings"
         x="30.92775"
         y="621.74078"
         id="tspan3741"></tspan>
    </text>
    <text
       id="text3753"
       x="30.92775"
       y="643.49066"
       style="font-size:15px">
      <tspan
         style="font-size:13.75px;font-variant:normal;font-weight:normal;font-stretch:normal;writing-mode:lr-tb;fill:#231f20;fill-opacity:1;fill-rule:nonzero;stroke:none;font-family:Wingdings;-inkscape-font-specification:Wingdings"
         x="30.92775"
         y="643.49066"
         id="tspan3755"></tspan>
    </text>
    <text
       id="text3779"
       x="434.483"
       y="815.6593"
       style="font-size:15px">
      <tspan
         style="font-size:13.75px;font-variant:normal;font-weight:normal;font-stretch:normal;writing-mode:lr-tb;fill:#231f20;fill-opacity:1;fill-rule:nonzero;stroke:none;font-family:Wingdings;-inkscape-font-specification:Wingdings"
         x="434.483"
         y="815.6593"
         id="tspan3781"></tspan>
    </text>
    <text
       id="text3799"
       x="34.907875"
       y="737.14856"
       style="font-size:15px">
      <tspan
         style="font-size:13.75px;font-variant:normal;font-weight:normal;font-stretch:normal;writing-mode:lr-tb;fill:#231f20;fill-opacity:1;fill-rule:nonzero;stroke:none;font-family:Wingdings;-inkscape-font-specification:Wingdings"
         x="34.907875"
         y="737.14856"
         id="tspan3801"></tspan>
    </text>
  </g>
</svg>
