<?xml version="1.0" encoding="UTF-8" standalone="no"?>
<svg
   id="Layer_1"
   viewBox="0 0 477.18003 42.199999"
   width="495.10275"
   height="43.356163"
   version="1.1"
   sodipodi:docname="laufenn-logo.svg"
   inkscape:version="1.4 (86a8ad7, 2024-10-11)"
   xmlns:inkscape="http://www.inkscape.org/namespaces/inkscape"
   xmlns:sodipodi="http://sodipodi.sourceforge.net/DTD/sodipodi-0.dtd"
   xmlns="http://www.w3.org/2000/svg"
   xmlns:svg="http://www.w3.org/2000/svg">
  <defs
     id="defs1" />
  <sodipodi:namedview
     id="namedview1"
     pagecolor="#ffffff"
     bordercolor="#000000"
     borderopacity="0.25"
     inkscape:showpageshadow="2"
     inkscape:pageopacity="0.0"
     inkscape:pagecheckerboard="0"
     inkscape:deskcolor="#d1d1d1"
     inkscape:zoom="1.776"
     inkscape:cx="275.61937"
     inkscape:cy="3.0968468"
     inkscape:window-width="1920"
     inkscape:window-height="1017"
     inkscape:window-x="-8"
     inkscape:window-y="-8"
     inkscape:window-maximized="1"
     inkscape:current-layer="Layer_1" />
  <style
     id="style1">.st0{fill:#513385}</style>
  <path
     class="st0"
     d="m 453.61667,37.9 6.9,-22.8 c 2.5,-8.3 -2.1,-15 -10.4,-15 h -40 c -2.1,0 -4.2,1.7 -4.9,3.8 l -10.4,34 h -9.5 l 6.9,-22.8 c 2.5,-8.3 -2.1,-15 -10.4,-15 h -40 c -2.1,0 -4.2,1.7 -4.9,3.8 l -9.4,31.2 h -40.3 c -2.1,0 -3.2,-1.7 -2.6,-3.8 l 2,-6.7 h 33.5 c 2.1,0 4.3,-1.7 4.9,-3.8 l 1.8,-5.8 c 2.5,-8.3 -2.1,-15 -10.4,-15 h -28.8 c -8.3,0 -17,6.7 -19.5,15 l -0.8,2.5 h -35 l 1.5,-4.8 c 0.9,-3.1 4.2,-5.6 7.3,-5.6 h 21.1 c 1.7,-3.2 3.8,-5.2 6.4,-7.1 h -42.4 c -5.6,0 -11.5,4.5 -13.2,10.1 l -8.4,27.7 h -10 l 10.2,-33.4 c 0.6,-2.1 -0.5,-3.8 -2.6,-3.8 h -17.7 l -10.4,34.5 h -8.3 c -4.1,0 -6.5,-3.4 -5.2,-7.5 l 8.3,-27.5 h -21.5 l -8.2,27.1 c -1.3,4.2 -0.7,8 1.2,10.7 h -6.8 c -6.8,0 -5.4,-7.1 -4.5,-10 0.1,-0.2 0.2,-0.5 0.2,-0.7 l 3.7,-12 c 2.6,-8.4 -2.1,-15.1 -10.4,-15.1 H 82.616667 l -2.2,7.1 h 29.800003 c 2.1,0 3.2,1.7 2.6,3.7 l -1.6,5.3 H 85.216667 c -6.2,0 -12.8,5 -14.6,11.3 l -1,3.4 c -0.2,0.8 -0.4,1.6 -0.5,2.4 -0.2,5 2,6.3 2,6.3 h -5.3 c -1.9,0 -5,-0.3 -6.3,-4.5 h -20 c -4.1,0 -6.5,-3.4 -5.2,-7.5 l 8.4,-27.5 H -1.0833333 l -1.3,4.3 H 19.916667 l -6.9,22.8 c -2.5,8.3 2.1,15 10.4,15 h 86.400003 c 3.7,0 7.5,-1.3 10.7,-3.6 1.2,2 3.5,3.6 8,3.6 h 96.3 l 5.3,-17.5 h 35 l -0.8,2.5 c -2.5,8.3 2.1,15 10.4,15 h 72 l 10.7,-35 h 8.3 c 4.1,0 6.5,3.4 5.2,7.5 l -8.3,27.5 h 52.4 l 10.7,-35 h 8.3 c 4.1,0 6.5,3.4 5.2,7.5 l -8.4,27.5 h 47.4 l 1.3,-4.3 h -25.9 z m -163.9,-23.2 c 1.3,-4.1 5.6,-7.5 9.8,-7.5 h 0.8 c 4.1,0 6.5,3.4 5.2,7.5 l -0.9,2.9 h -15.8 z m -181.9,12.9 c -1.3,4.1 -5.6,7.5 -9.800003,7.5 h -4.6 c -2.1,0 -3.2,-1.7 -2.6,-3.8 l 1.3,-4.3 c 0.6,-2.1 2.8,-3.8 4.9,-3.8 h 12.000003 z"
     id="path1"
     sodipodi:nodetypes="ccssccccssccsccsccssccccsccsccccsccscccccscccsccsccsccccscsccccccsscsccccsccsccccscccccccsscccccssccscc" />
</svg>
