<?xml version="1.0" encoding="UTF-8" standalone="no"?>
<svg
   width="401"
   height="62"
   viewBox="0 54 401 24.424249"
   fill="none"
   version="1.1"
   id="svg10"
   sodipodi:docname="matador-logo-2.svg"
   inkscape:version="1.4 (86a8ad7, 2024-10-11)"
   xmlns:inkscape="http://www.inkscape.org/namespaces/inkscape"
   xmlns:sodipodi="http://sodipodi.sourceforge.net/DTD/sodipodi-0.dtd"
   xmlns="http://www.w3.org/2000/svg"
   xmlns:svg="http://www.w3.org/2000/svg">
  <sodipodi:namedview
     id="namedview10"
     pagecolor="#ffffff"
     bordercolor="#000000"
     borderopacity="0.25"
     inkscape:showpageshadow="2"
     inkscape:pageopacity="0.0"
     inkscape:pagecheckerboard="false"
     inkscape:deskcolor="#d1d1d1"
     inkscape:zoom="2.2089552"
     inkscape:cx="159.125"
     inkscape:cy="59.530405"
     inkscape:window-width="1920"
     inkscape:window-height="1017"
     inkscape:window-x="-8"
     inkscape:window-y="-8"
     inkscape:window-maximized="1"
     inkscape:current-layer="svg10" />
  <g
     clip-path="url(#clip0_812_447)"
     id="g10">
    <path
       d="m 135.987,86.4688 15.649,0.0211 -1.016,-38.3946 -15.733,-0.0229 -10.476,18.3466 c -1.282,2.232 -2.199,4.2397 -2.199,4.2397 h -0.169 c 0,0 -0.336,-2.0095 -0.973,-4.3006 l -5.346,-18.3105 -23.6409,0.0045 4.5063,11.2746 c 0.0503,0.1271 0.0927,0.2525 0.1395,0.3779 l -7.2698,26.7041 13.5569,0.0177 c 0.443,-2.232 4.332,-18.7449 4.332,-18.7449 0.567,-2.5674 0.762,-4.8003 0.762,-4.8003 h 0.083 c 0,0 0.393,2.2329 1.247,4.803 0,0 5.309,16.5808 6.211,18.7581 l 7.617,0.0097 c 1.655,-2.564 10.859,-18.7351 10.859,-18.7351 1.391,-2.4545 2.352,-4.7959 2.352,-4.7959 h 0.167 c 0,0 -0.382,2.397 -0.426,4.7976 0,0 -0.166,16.8528 -0.233,18.7502 z"
       fill="#da291c"
       id="path1" />
    <path
       d="m 176.319,87.0807 c -13.641,-0.0185 -20.611,-3.2085 -19.796,-9.7922 0.956,-7.6998 13.026,-9.8602 26.519,-10.6805 l 0.145,-1.1707 c 0.297,-2.3988 -2.214,-3.0725 -6.566,-3.0769 -4.351,-0.0062 -9.149,0.8785 -12.446,1.8232 l -2.525,-5.9737 c 3.549,-0.9447 10.001,-2.3309 18.871,-2.3185 11.045,0.0141 18.279,3.0928 17.22,11.6296 l -2.143,17.2959 c -4.016,1.335 -10.743,2.2753 -19.279,2.2638 z m 6.135,-15.7297 c -6.153,0.3275 -10.543,1.3252 -11.062,5.5101 -0.379,3.0699 2.047,4.411 6.4,4.419 1.42,8e-4 2.607,-0.1095 3.479,-0.3868 z"
       fill="#da291c"
       id="path2" />
    <path
       d="m 218.827,87.1372 c -10.126,-0.0141 -14.301,-4.1478 -13.656,-9.3375 l 1.783,-14.3948 -1.336,-0.0071 -3.308,-6.9184 5.501,0.0071 0.761,-6.1388 16.233,-2.6566 -1.093,8.8166 6.527,0.0079 -0.857,6.9184 -6.528,-0.0088 -1.675,13.5022 c -0.276,2.2311 0.793,3.0716 3.135,3.0742 1.172,0.0018 1.771,-0.1095 3.067,-0.4432 l -0.809,6.5282 c -1.227,0.4441 -4.064,1.055 -7.745,1.0506 z"
       fill="#da291c"
       id="path3" />
    <path
       d="M 250.542,87.1804 C 236.9,87.1619 229.93,83.9702 230.747,77.3873 c 0.954,-7.6997 13.025,-9.862 26.517,-10.6795 l 0.146,-1.1734 c 0.297,-2.3971 -2.216,-3.0725 -6.566,-3.076 -4.351,-0.0062 -9.149,0.8802 -12.447,1.8249 l -2.523,-5.9754 c 3.549,-0.9447 9.998,-2.3291 18.868,-2.3185 11.047,0.0141 18.281,3.0928 17.222,11.6295 l -2.143,17.2987 c -4.016,1.3323 -10.743,2.2743 -19.279,2.2628 z m 6.133,-15.7288 c -6.149,0.324 -10.541,1.3235 -11.06,5.5102 -0.381,3.0672 2.047,4.4109 6.398,4.4162 1.424,0.0018 2.609,-0.1086 3.479,-0.3858 z"
       fill="#da291c"
       id="path4" />
    <path
       d="m 298.157,87.2414 c -13.975,-0.0177 -22.727,-5.052 -21.418,-15.5982 1.167,-9.4285 10.276,-15.388 21.826,-15.3721 2.761,0.0017 5.001,0.173 6.303,0.4546 l 1.716,-13.8394 15.9,0.0238 -5.214,42.0684 c -4.875,1.5009 -10.494,2.2752 -19.113,2.2629 z m 6.021,-24.9357 c -0.657,-0.1139 -1.48,-0.2243 -2.484,-0.2269 -5.69,-0.0062 -8.435,3.2243 -9.182,9.2527 -0.774,6.2483 1.363,9.2652 6.636,9.2722 1.171,0 2.097,-0.0529 2.795,-0.2763 z"
       fill="#da291c"
       id="path5" />
    <path
       d="m 343.261,87.3032 c -13.473,-0.0168 -20.188,-6.6138 -19.067,-15.6511 1.112,-8.9844 9.545,-15.5576 22.935,-15.5391 13.555,0.0177 20.272,6.6112 19.158,15.5947 -1.122,9.0382 -9.553,15.6149 -23.026,15.5955 z m 3.05,-24.6082 c -4.351,-0.0053 -5.742,3.7886 -6.365,8.8087 -0.629,5.0793 -0.067,8.6524 4.201,8.6568 4.351,0.0071 5.715,-3.5642 6.342,-8.6418 0.622,-5.021 0.175,-8.8166 -4.178,-8.8237 z"
       fill="#da291c"
       id="path6" />
    <path
       d="m 396.327,63.6539 c -2.814,-0.9509 -5.65,-1.0118 -7.806,-0.5121 l -2.932,23.6573 -15.901,-0.0212 3.515,-28.3437 c 5.487,-1.7225 13.966,-2.6028 26.797,-2.141 z"
       fill="#da291c"
       id="path7" />
    <path
       d="m 22.5263,80.8343 c 5.3574,-15.7721 14.2729,-26.834 24.3724,-28.183 4.9566,-0.664 9.6333,1.1045 13.7459,4.7597 C 53.9292,42.9014 44.3242,34.5951 33.657,36.1499 18.6053,38.3492 5.6841,59.4946 0,87.8992 6.33568,84.6431 14.0178,82.1966 22.5263,80.8343 Z"
       fill="#000000"
       id="path8" />
    <path
       d="m 43.9968,66.0571 c 6.1388,0.7125 11.498,6.9617 14.4071,15.6759 4.4684,0.965 8.6586,2.239 12.4886,3.777 -2.9197,-15.0093 -10.51,-26.4145 -19.4308,-27.5491 -6.0116,-0.7602 -11.4274,3.3118 -15.2115,10.4315 2.3177,-1.7941 4.9549,-2.6628 7.7466,-2.3353 z"
       fill="#da291c"
       id="path9" />
    <path
       d="M 68.7434,89.9386 C 61.561,88.1031 53.689,86.8741 45.3951,86.4273 27.9296,85.4862 11.9244,88.1543 0.15271,93.2292 l 0.96766,0.053 C 11.1545,90.6573 20.1371,90.2371 32.7308,90.9151 c 8.8837,0.4786 18.434,2.7547 26.0164,4.8145 2.3953,-1.7234 6.8875,-4.7933 9.9962,-5.791 z"
       fill="#75787b"
       id="path10" />
  </g>
  <defs
     id="defs10">
    <clipPath
       id="clip0_812_447">
      <rect
         width="400"
         height="59.766102"
         fill="#ffffff"
         transform="translate(0,35.9635)"
         id="rect10"
         x="0"
         y="0" />
    </clipPath>
  </defs>
</svg>
