<?xml version="1.0" encoding="UTF-8" standalone="no"?>
<svg
   height="547.24506"
   viewBox="0.132 0.132 34.903 17.328327"
   width="1096.4064"
   version="1.1"
   id="svg2"
   sodipodi:docname="nexen-logo.svg"
   inkscape:version="1.4 (86a8ad7, 2024-10-11)"
   xmlns:inkscape="http://www.inkscape.org/namespaces/inkscape"
   xmlns:sodipodi="http://sodipodi.sourceforge.net/DTD/sodipodi-0.dtd"
   xmlns="http://www.w3.org/2000/svg"
   xmlns:svg="http://www.w3.org/2000/svg">
  <defs
     id="defs2" />
  <sodipodi:namedview
     id="namedview2"
     pagecolor="#ffffff"
     bordercolor="#000000"
     borderopacity="0.25"
     inkscape:showpageshadow="2"
     inkscape:pageopacity="0.0"
     inkscape:pagecheckerboard="0"
     inkscape:deskcolor="#d1d1d1"
     inkscape:zoom="0.3552"
     inkscape:cx="463.11937"
     inkscape:cy="344.87613"
     inkscape:window-width="1920"
     inkscape:window-height="1017"
     inkscape:window-x="-8"
     inkscape:window-y="-8"
     inkscape:window-maximized="1"
     inkscape:current-layer="svg2" />
  <path
     d="m 0.132,2.2548905 h 34.903 v -2.172 H 0.132 Z m 0,15.2489995 h 34.903 v -2.172 H 0.132 Z M 26.143,7.7668905 v 0.143 h -3.838 v 1.761 h 3.838 V 11.88489 h -4.815 l -2.38,-3.0519995 2.444,-3.13 h 4.75 z M 13.821,11.88489 H 9.023 V 9.6708905 h 3.838 v -1.761 H 9.023 v -2.209 h 4.739 l 2.442,3.13 z M 32.676,3.9428905 V 11.28989 L 29.86,5.3388905 c -0.203,-0.459 -0.46,-0.767 -0.716,-0.974 -0.565,-0.456 -1.131,-0.423 -1.131,-0.423 h -7.995 l -2.44,3.13 -2.443,-3.13 H 8.262 c -0.576,0 -0.945,0.175 -1.182,0.4 -0.429,0.407 -0.42,0.98 -0.42,0.98 V 11.28989 L 3.844,5.3388905 c -0.203,-0.459 -0.46,-0.767 -0.716,-0.974 -0.565,-0.456 -1.131,-0.423 -1.131,-0.423 H 0.132 V 13.64689 H 2.493 V 6.9708905 c 0,0 2.674,5.6599995 2.765,5.8499995 0.061,0.126 0.246,0.444 0.704,0.647 0.227,0.1 0.522,0.173 0.902,0.179 l 8.327,0.003 2.383,-3.056 2.384,3.053 h 6.19 l 0.76,0.005 c 0.578,0 0.947,-0.176 1.183,-0.4 0.428,-0.41 0.418,-0.998 0.418,-0.998 V 6.9688905 c 0,0 2.674,5.6619995 2.765,5.8509995 0.061,0.127 0.245,0.445 0.704,0.648 0.227,0.1 0.457,0.153 0.902,0.174 -0.005,0.006 0.49,0.005 1.007,0.005 h 1.148 V 3.9428905 Z m 0,0"
     fill="#7f288f"
     id="path2" />
</svg>
