<?xml version="1.0"?>
<svg width="2750" height="500" xmlns="http://www.w3.org/2000/svg" xmlns:svg="http://www.w3.org/2000/svg" version="1.1">
 <defs id="defs6">
  <clipPath clipPathUnits="userSpaceOnUse" id="clipPath16">
   <path d="m0,444l2352,0l0,-444l-2352,0l0,444z" id="path14"/>
  </clipPath>
 </defs>
 <g class="layer">
  <title>Layer 1</title>
  <g id="g8" transform="matrix(1.33333 0 0 -1.33333 0 592)">
   <g id="g10">
    <g clip-path="url(#clipPath16)" id="g12">
     <g id="g18" transform="translate(285.5498,386.8667)">
      <path d="m0,0c-5.58,0.59 -7.18,-1.69 -0.93,-3.72c6.26,-2.03 37.52,-11.83 56.96,-30.44c19.45,-18.59 56.39,-54.84 56.39,-117.87c0,-63.03 -29.48,-100.37 -48.68,-118.76c-19.2,-18.4 -30.74,-22.82 -34.54,-24.85c-3.8,-2.03 -7.17,-5.88 2.2,-5.88c9.37,0 8.81,0.18 14.07,1.65c5.27,1.46 18.67,8.49 33.1,19.99c14.43,11.5 58.6,49.03 58.6,127.94c0,78.9 -59.95,119.03 -71.67,127.37c-11.72,8.34 -27.49,15.1 -38.77,18.71c-11.26,3.61 -21.16,5.27 -26.73,5.86" fill="#fab20b" fill-rule="nonzero" id="path20"/>
     </g>
     <g id="g22" transform="translate(186.2729,388.189)">
      <path d="m0,0c-5.58,0.59 -8.64,-0.97 -2.38,-3c6.25,-2.02 41.43,-12.79 60.87,-31.39c19.44,-18.61 56.57,-56.48 56.57,-119.5c0,-63.04 -30.2,-99.83 -49.4,-118.23c-19.2,-18.39 -30.74,-22.82 -34.54,-24.84c-3.8,-2.04 -7.17,-5.88 2.2,-5.88c9.37,0 8.8,0.18 14.07,1.65c5.27,1.46 18.67,8.5 33.1,19.99c14.42,11.5 58.6,49.03 58.6,127.94c0,78.89 -58.6,119.02 -70.32,127.36c-11.72,8.34 -28.85,15.11 -40.12,18.72c-11.27,3.6 -23.07,6.59 -28.65,7.18" fill="#fab20b" fill-rule="nonzero" id="path24"/>
     </g>
     <g id="g26" transform="translate(250.9341,386.8667)">
      <path d="m0,0c-1.79,0.19 -9.84,1.26 -15.29,1.34c-5.59,0.08 -11.9,0.28 -16.43,0.09c-4.84,-0.21 -4.4,-1.74 -2.2,-2.45c6.25,-2.03 43.47,-14.53 62.91,-33.14c19.43,-18.59 56.39,-54.84 56.39,-117.87c0,-63.03 -29.48,-100.37 -48.69,-118.76c-19.2,-18.4 -30.73,-22.82 -34.54,-24.85c-3.8,-2.03 -7.16,-5.88 2.21,-5.88c9.36,0 35.84,0.18 41.11,1.65c5.27,1.46 18.67,8.49 33.1,19.99c14.42,11.5 57.68,49.03 57.68,127.94c0,78.9 -59.04,119.03 -70.75,127.37c-11.72,8.34 -27.49,15.1 -38.77,18.71c-11.26,3.61 -21.16,5.27 -26.73,5.86" fill="#fab20b" fill-rule="nonzero" id="path28"/>
     </g>
     <g id="g30" transform="translate(223.8159,255.3726)">
      <path d="m0,0c2,-8.66 -0.96,-7.78 -4.92,-1.11c-5.32,8.97 -25.6,34.2 -55.47,34.2c-29.86,0 -44.45,-8.29 -57.3,-21.13c-12.84,-12.86 -21.13,-31.79 -21.13,-52.08c0,-20.29 8.79,-37.7 19.61,-47.68c10.82,-9.97 14.83,-13.15 21.34,-15.94c6.51,-2.78 7.14,-5.36 2.07,-5.36c-5.07,0 -25.4,6.81 -33.09,12.13c-7.69,5.33 -34.72,26.25 -38.32,57.35c-3.61,31.12 1.77,54.42 25.89,78.54c22.38,22.38 61.32,26.63 83.86,19.42c22.54,-7.21 33.69,-16.68 42.59,-29.53c8.91,-12.85 13.34,-22.17 14.87,-28.81" fill="#fab20b" fill-rule="nonzero" id="path32"/>
     </g>
     <g id="g34" transform="translate(751.915,305.1226)">
      <path d="m0,0c-3.52,6.18 -15.52,16.53 -64.67,21.15c-49.16,4.63 -104.96,2.03 -133.6,-6.18c-28.64,-8.23 -45.36,-16.63 -50.07,-40.56c-4.72,-23.93 10.68,-31.52 21.74,-36.22c11.06,-4.71 60.57,-18.67 60.57,-18.67l-95.37,-0.18c-6.01,-18.49 -7.57,-29.06 -4.81,-37.12c2.77,-8.05 9.04,-18.61 42.96,-24.83c33.93,-6.23 110.24,-11.38 165.56,3.41c27.89,7.47 40.14,19.09 43.87,32.17c3.74,13.07 8.09,29.87 -7.47,40.86c-15.56,10.99 -84.4,29.77 -84.4,29.77c0,0 93.27,-0.1 103.5,-0.1c6.44,18.76 5.7,30.31 2.19,36.5m-128.65,-112.12c-5.08,-7.36 -29.14,-5.5 -29.14,-5.5l0,34.96c0,0 23.75,-11.21 27.28,-13.7c3.52,-2.49 6.95,-8.39 1.86,-15.76m19.92,76.14c0,0 -26.56,3.83 -26.56,12.55c0,12.76 26.56,11.31 26.56,11.31l0,-23.86z" fill="#174e94" fill-rule="nonzero" id="path36"/>
     </g>
     <g id="g38" transform="translate(1034.5264,160.125)">
      <path d="m0,0c0,0 -15.99,153 -16.49,157.72c-0.5,4.7 -0.87,7.68 -7.07,7.68l-150.26,0c0,0 -91.63,-152.25 -94.36,-156.84c-2.73,-4.59 -0.99,-8.93 3.47,-8.93l102.54,0l14.38,30.13l40.05,0l-2.36,-29.76l110.1,0zm-132.79,72.66c0,0 20.83,37.2 22.82,40.67c1.98,3.47 8.3,2.61 8.3,-2.24l0,-38.55l-31.12,0.12z" fill="#174e94" fill-rule="nonzero" id="path40"/>
     </g>
     <g id="g42" transform="translate(1184.5781,159.3276)">
      <path d="m0,0l-103.9,0c-2.13,0 -3.11,3.34 -1.33,9.98c1.79,6.64 40.78,152.37 41.27,153.81c0.48,1.45 0.48,2.17 2.64,2.11c2.16,-0.06 93.08,-0.36 97.94,-0.36c4.86,0 6.54,-3.6 4.14,-13.15c-2.4,-9.54 -40.76,-152.39 -40.76,-152.39" fill="#174e94" fill-rule="nonzero" id="path44"/>
     </g>
     <g id="g46" transform="translate(1426.0146,159.9814)">
      <path d="m0,0l-168.59,0c-3.94,0 -5.88,0.14 -3.94,7.26c1.93,7.13 41.94,157.77 41.94,157.77l101.79,0c5.42,0 4.92,-3.47 3.83,-7.94c-1.09,-4.47 -26.53,-100.63 -28.91,-109.59c-2.39,-8.98 -1.25,-10.01 6.01,-10.01l51.14,0c4.77,0 6.01,-1.25 4.62,-6.64c-1.41,-5.4 -7.89,-30.85 -7.89,-30.85" fill="#174e94" fill-rule="nonzero" id="path48"/>
     </g>
     <g id="g50" transform="translate(1472.4834,196.4282)">
      <path d="m0,0l33.82,128.62l102.11,0c4.28,0 4.55,-3.26 3.47,-7.05c-1.08,-3.79 -25.09,-93.77 -27.89,-104.04c-2.8,-10.27 -0.83,-17.02 10.06,-17.02c10.89,0 17.33,0.94 21.58,16.19c4.25,15.25 30.6,112.55 30.6,112.55l101.86,0c5.08,0 5.32,-1.51 3.82,-7.19c-1.5,-5.69 -22.12,-80.85 -32.08,-118.05c-9.95,-37.2 -90.58,-45.22 -133.6,-45.22c-43.01,0 -119.62,8.02 -113.75,41.21" fill="#174e94" fill-rule="nonzero" id="path52"/>
     </g>
     <g id="g54" transform="translate(1859.0078,159.7295)">
      <path d="m0,0l-83.89,0c-4.73,0 -5.32,3.19 -4.14,7.56c1.18,4.38 42.3,158.1 42.3,158.1l90.51,0c0,0 27.29,-50.69 32.02,-59.44c4.73,-8.74 10.75,-9.68 13.94,1.77l15.4,57.79c0,0 78.98,0.49 83.95,0.49c4.97,0 5.49,-1.89 4.12,-7.02c-1.36,-5.12 -42.27,-159.04 -42.27,-159.04l-94.75,0c0,0 -25.25,52.74 -29.53,61.43c-3.74,7.57 -8.77,9.02 -11.45,-0.78l-16.21,-60.86z" fill="#174e94" fill-rule="nonzero" id="path56"/>
     </g>
    </g>
   </g>
  </g>
 </g>
</svg>