<?xml version="1.0" encoding="UTF-8" standalone="no"?>
<svg
   width="2159.5083"
   height="595.63062"
   viewBox="0 0 167.79704 46.281391"
   version="1.1"
   id="svg3"
   sodipodi:docname="sava-logo.svg"
   inkscape:version="1.4 (86a8ad7, 2024-10-11)"
   xmlns:inkscape="http://www.inkscape.org/namespaces/inkscape"
   xmlns:sodipodi="http://sodipodi.sourceforge.net/DTD/sodipodi-0.dtd"
   xmlns="http://www.w3.org/2000/svg"
   xmlns:svg="http://www.w3.org/2000/svg">
  <defs
     id="defs3" />
  <sodipodi:namedview
     id="namedview3"
     pagecolor="#ffffff"
     bordercolor="#000000"
     borderopacity="0.25"
     inkscape:showpageshadow="2"
     inkscape:pageopacity="0.0"
     inkscape:pagecheckerboard="0"
     inkscape:deskcolor="#d1d1d1"
     showguides="false"
     inkscape:zoom="0.326"
     inkscape:cx="1090.4908"
     inkscape:cy="308.28221"
     inkscape:window-width="1920"
     inkscape:window-height="1017"
     inkscape:window-x="-8"
     inkscape:window-y="-8"
     inkscape:window-maximized="1"
     inkscape:current-layer="svg3" />
  <g
     fill-rule="evenodd"
     clip-rule="evenodd"
     fill="#ffffff"
     fill-opacity="0"
     id="g3"
     transform="translate(-12.414855,-73.236614)">
    <path
       d="M 33.639,106.605 16.066,84.254 c 0,0 5.128,-9.894 17.368,-9.822 12.24,0.071 16.753,8.47 16.753,8.47 l -8.753,5.267 c 0,0 -2.043,-2.541 -4.091,-3.376 -2.055,-0.838 -4.115,0.031 -4.115,0.031 l 16.548,20.285 c 0,0 1.367,1.779 2.94,1.068 1.573,-0.711 1.368,-2.277 1.368,-2.277 0,0 -2.571,-11.919 6.934,-18.539 9.504,-6.619 19.051,-0.893 19.051,-0.893 l 8.41,-2.136 -0.068,22.776 c 0,0 0.616,4.201 4.582,3.844 3.966,-0.355 3.898,-3.629 3.898,-3.629 V 85.678 L 107.9,82.475 v 22.919 c 0,0 0.463,1.385 1.428,2.146 1.016,0.803 2.539,0.986 2.539,0.986 0,0 3.08,0.43 5.336,-3.842 2.256,-4.272 0.887,-7.477 0.887,-7.477 0,0 -2.408,-2.297 -3.826,-5.089 -1.486,-2.935 -1.986,-6.37 -1.986,-6.37 l 10.871,-3.132 c 0,0 2.051,4.982 4.17,7.117 2.121,2.136 4.721,1.496 4.721,1.496 0,0 1.422,-0.329 2.943,-1.276 1.451,-0.903 2.594,-2.497 2.594,-2.497 0,0 3.629,-4.457 10.125,-5.169 6.496,-0.712 11.348,2.394 11.348,2.394 l 8.137,-2.207 v 22.919 c 0,0 0.664,3.051 3.604,3.975 2.941,0.926 6.107,-0.416 6.107,-0.416 l 1.914,6.621 c 0,0 -4.641,2.869 -9.369,2.746 -4.91,-0.127 -9.914,-3.244 -9.914,-3.244 0,0 -7.316,5.621 -17.232,1.281 -9.914,-4.344 -9.914,-16.158 -9.914,-16.158 0,0 -0.619,0.389 -1.441,0.617 -0.707,0.197 -1.637,0.236 -1.637,0.236 0,0 0.752,9.254 -9.367,14.807 -10.121,5.551 -18.121,-0.926 -18.121,-0.926 0,0 -5.842,3.311 -11.008,3.275 -5.328,-0.037 -9.984,-3.418 -9.984,-3.418 0,0 -5.155,3.592 -10.467,3.412 -5.218,-0.178 -10.595,-4.123 -10.595,-4.123 0,0 -4.285,3.846 -8.684,4.133 -4.354,0.281 -8.821,-2.994 -8.821,-2.994 0,0 -6.909,4.562 -15.867,1.787 -8.958,-2.775 -12.443,-10.33 -12.443,-10.33 l 9.437,-5.693 c 0,0 1.654,3.354 4.241,4.771 2.539,1.394 6.013,0.853 6.013,0.853 z"
       stroke="#000000"
       stroke-width="2.39"
       stroke-miterlimit="2.613"
       id="path2" />
    <path
       d="m 70.906,91.657 c 0,0 -6.564,0.285 -6.086,8.685 0.479,8.398 6.086,7.9 6.086,7.9 0,0 6.223,0 6.291,-8.398 0.069,-8.4 -6.291,-8.187 -6.291,-8.187 z m 78.912,0 c 0,0 -6.564,0.285 -6.086,8.685 0.479,8.398 6.086,7.9 6.086,7.9 0,0 6.223,0 6.291,-8.398 0.069,-8.4 -6.291,-8.187 -6.291,-8.187 z"
       stroke="#000000"
       stroke-width="2.39"
       stroke-miterlimit="2.613"
       id="path3" />
  </g>
</svg>
