<?xml version="1.0" encoding="UTF-8" standalone="no"?>
<svg
   height="250.68294"
   viewBox="0.985 0.527 391.11656 60.494096"
   width="2011.424"
   version="1.1"
   id="svg2"
   sodipodi:docname="tigar-logo.svg"
   inkscape:version="1.4 (86a8ad7, 2024-10-11)"
   xmlns:inkscape="http://www.inkscape.org/namespaces/inkscape"
   xmlns:sodipodi="http://sodipodi.sourceforge.net/DTD/sodipodi-0.dtd"
   xmlns="http://www.w3.org/2000/svg"
   xmlns:svg="http://www.w3.org/2000/svg">
  <defs
     id="defs2" />
  <sodipodi:namedview
     id="namedview2"
     pagecolor="#ffffff"
     bordercolor="#000000"
     borderopacity="0.25"
     inkscape:showpageshadow="2"
     inkscape:pageopacity="0.0"
     inkscape:pagecheckerboard="0"
     inkscape:deskcolor="#d1d1d1"
     inkscape:zoom="0.50232866"
     inkscape:cx="1159.5994"
     inkscape:cy="261.7808"
     inkscape:window-width="1920"
     inkscape:window-height="1017"
     inkscape:window-x="-8"
     inkscape:window-y="-8"
     inkscape:window-maximized="1"
     inkscape:current-layer="svg2" />
  <g
     fill="none"
     fill-rule="evenodd"
     id="g2"
     transform="translate(-47.137282)">
    <path
       d="M 0.985,59.265 V 2.08 h 18.039 c -6.845,16.933 -5.734,33.866 4.924,50.6 -8.165,-17.428 -7.784,-35.55 0.65,-50.6 h 25.914 c -0.928,0.47 -1.76,0.932 -2.417,1.308 -2.595,1.596 -9.58,7.583 -16.564,11.275 -3.99,3.293 -0.998,6.386 -5.487,16.264 1.496,0.798 2.993,0.998 3.99,2.494 -0.798,1.198 -0.997,1.697 -1.396,3.592 l 1.496,-0.499 0.699,2.595 4.79,-5.289 4.39,1.397 c -3.493,-19.257 27.339,-6.884 18.957,4.99 -2.992,4.29 -9.279,3.691 -13.67,3.791 -1.296,3.093 -0.897,8.88 1.997,11.175 3.99,2.994 10.976,1.796 12.073,-1.496 6.286,-19.557 19.357,-8.481 20.954,5.587 h 0.003 v 10e-4 z M 60.568,2.08 h 6.097 c -1.863,2.885 -7.508,3.49 -8.193,5.898 -0.4,1.995 -4.79,3.192 -8.083,4.49 -2.494,0.998 -3.79,1.796 -3.692,0.498 1.897,-3.99 8.282,-5.787 9.38,-4.988 1.079,-2.451 2.638,-4.228 4.49,-5.898 z m 18.157,0 h 7.452 v 7.547 c -6.403,1.325 -5.882,5.469 -10.743,8.329 -4.09,2.395 -7.982,0.798 -4.989,-0.6 3.393,-0.398 3.692,-1.995 5.09,-3.491 2.394,-3.293 3.99,-5.987 8.68,-6.885 -0.599,-1.497 -4.091,-2.694 -6.885,1.497 -1.097,3.492 -13.641,10.567 -15.266,8.78 -0.474,-0.522 -0.948,-4.144 4.917,-5.49 5.864,-1.347 4.072,-4.992 10.25,-7.681 1.064,-0.463 1.465,-1.237 1.494,-2.006 z m 7.452,11.188 v 4.038 c -3.087,1.194 -4.06,6.254 -11.242,7.435 0,0 -1.995,0.798 -3.093,1.896 -2.495,2.394 -2.893,0.498 -2.893,0.498 1.097,-6.784 7.961,-5.18 10.876,-7.483 2.915,-2.303 3.102,-4.984 6.352,-6.384 z m 0,7.636 v 4.883 c -1.567,1.724 -3.558,2.047 -5.355,2.646 -1.797,0.599 -3.392,2.794 -3.891,0.997 -0.3,-1.895 3.393,-2.793 4.69,-3.492 1.895,-1.197 3.392,-2.794 3.99,-4.09 0.148,-0.37 0.349,-0.683 0.566,-0.943 z m 0,9.69 v 3.813 c -0.187,0.078 -0.35,0.168 -0.565,0.312 -1.696,0.898 -3.293,0.798 -4.989,1.596 -1.597,0.698 -2.495,3.592 -3.293,1.996 -0.698,-1.298 -0.1,-3.692 1.696,-4.191 3.248,-1.051 5.397,-2.284 7.15,-3.526 z m 0,7.762 v 2.177 c -1.51,0.797 -2.913,1.012 -3.957,-0.127 -0.772,-0.868 1.717,-0.71 3.957,-2.05 z M 64.359,8.476 c 0.598,-1.396 5.887,-3.99 6.685,-5.288 1.597,1.098 -1.497,2.395 -2.195,3.692 -0.7,0.898 -4.89,2.694 -4.49,1.597 z"
       fill="#1e1917"
       id="path1" />
    <path
       d="m 288.11,55.647 a 144.84,144.84 0 0 1 -19.302,4.028 144.22,144.22 0 0 1 -19.823,1.346 c -14.263,0 -24.292,-2.544 -30.094,-7.63 -5.797,-5.083 -7.35,-12.672 -4.635,-22.764 2.69,-10.003 8.41,-17.515 17.16,-22.546 8.76,-5.036 20.545,-7.554 35.333,-7.554 6.015,0 11.917,0.257 17.68,0.757 5.764,0.5 11.403,1.244 16.886,2.244 l -5.39,20.032 c -5.369,-0.5 -10.215,-0.879 -14.525,-1.141 -4.322,-0.263 -7.923,-0.397 -10.813,-0.397 -7.328,0 -13.078,1.009 -17.256,3.039 -4.185,2.034 -6.83,5.092 -7.927,9.17 -0.997,3.705 -0.31,6.536 2.037,8.49 2.352,1.957 6.261,2.936 11.75,2.936 0.162,0 0.428,-0.014 0.773,-0.051 0.36,-0.039 0.616,-0.064 0.791,-0.064 L 264.91,30.1 h 30.074 M 166.11,59.251 181.495,2.066 h 33.665 l -15.385,57.185 m -92.614,0 9.053,-33.645 -19.611,-0.004 0.245,-0.836 6.107,-22.7 h 69.513 l -6.341,23.538 -16.336,0.002 -9.052,33.645 m 249.388,0 15.383,-57.185 h 62.703 c 7.182,0 12.247,1.36 15.191,4.091 2.944,2.732 3.7,6.759 2.272,12.068 -1.36,5.053 -4.131,9.035 -8.307,11.94 -4.175,2.904 -9.734,4.707 -16.658,5.374 l 16.497,23.712 H 438.58 l -10.359,-18.3 -4.824,18.3 z m 41.306,-29.868 h 6.424 c 4.423,0 7.677,-0.47 9.784,-1.424 2.115,-0.957 3.479,-2.565 4.086,-4.822 0.51,-1.898 0.072,-3.24 -1.317,-4.001 -1.398,-0.765 -4.337,-1.141 -8.803,-1.141 h -7.11 z M 291.72,59.251 328.142,2.066 h 51.418 l 5.74,57.185 h -33.914 l -0.041,-7.412 h -21.681 l -4.369,7.412 z m 47.136,-23.225 h 12.662 l -0.053,-21.033 z"
       fill="#e8112e"
       id="path2" />
  </g>
</svg>
