<?xml version="1.0" encoding="UTF-8"?>
<!DOCTYPE svg PUBLIC "-//W3C//DTD SVG 1.1//EN" "http://www.w3.org/Graphics/SVG/1.1/DTD/svg11.dtd">
<!-- Creator: CorelDRAW 2019 (64-Bit) -->
<svg xmlns="http://www.w3.org/2000/svg" xml:space="preserve" width="197.295mm" height="20.8077mm" version="1.1" style="shape-rendering:geometricPrecision; text-rendering:geometricPrecision; image-rendering:optimizeQuality; fill-rule:evenodd; clip-rule:evenodd"
viewBox="0 0 197.2944 20.8076"
 xmlns:xlink="http://www.w3.org/1999/xlink"
 xmlns:xodm="http://www.corel.com/coreldraw/odm/2003">
 <defs>
  <style type="text/css">
   <![CDATA[
    .fil0 {fill:#0260BA}
   ]]>
  </style>
 </defs>
 <g id="Layer_x0020_1">
  <metadata id="CorelCorpID_0Corel-Layer"/>
  <path class="fil0" d="M119.7578 0.5175l8.6345 0c-0.603,3.2807 -1.2959,6.6492 -1.9857,9.9312 -0.6896,3.2808 -1.3823,6.6467 -2.0722,9.9273l-8.8077 0c0.6899,-3.2806 1.469,-6.6465 2.1584,-9.9273 0.6935,-3.282 1.3828,-6.6491 2.0727,-9.9312zm10.19 0l0 0c-0.6915,3.2807 -1.2957,6.6492 -1.9858,9.9312 -0.6915,3.2808 -1.3822,6.6467 -2.0722,9.9273l8.8925 0 0.9492 -6.3895 4.0599 6.3895 9.5845 0 -5.6132 -7.5113c8.8085,-1.1222 11.5701,-11.7415 0.4322,-12.2596 -0.6914,0 -1.9869,-0.0864 -3.8866,-0.0864l-10.3605 -0.0012zm7.1665 5.4397l0 0 1.2083 0c1.8124,0 2.9348,0.1728 3.5403,0.4325 0.7761,0.3458 1.0352,1.0354 0.7761,1.9856 -0.3465,1.5543 -1.9858,1.8139 -4.3178,1.9866l-2.073 0 0.8661 -4.4047zm18.3903 -5.4397l0 0 18.9098 0.0868 -1.1224 5.1797 -11.3109 0 -0.6042 3.3675 11.2238 0 -0.8619 4.0579 -11.0519 0 -0.7775 2.5908 11.742 0 -0.9478 4.5751 -19.7744 0 4.5754 -19.8577zm-124.9389 6.5629l0 0c-1.1222,1.3814 -3.626,8.8918 1.5543,8.6347 4.9217,-0.2595 4.8355,-6.1311 4.4039,-8.29 -0.5188,-2.5037 -4.6635,-1.8994 -5.9582,-0.3447zm5.6121 -7.0804l0 0c3.6268,0 6.3034,0.7762 7.9443,2.4169 0.9489,0.8639 1.6409,1.9857 1.8994,3.3671 0.2592,1.2964 0.1727,2.8497 -0.2585,4.5772 -0.4314,1.4668 -1.0357,2.8482 -1.8128,4.0576 -0.777,1.2096 -1.7261,2.2454 -3.0224,3.1945 -2.8495,2.1584 -6.3898,3.1944 -10.7073,3.1944 -3.885,0 -6.7341,-0.8627 -8.5479,-2.6778 -0.9493,-0.8626 -1.5547,-1.9858 -1.813,-3.2786 -0.2598,-1.296 -0.1729,-2.7642 0.2595,-4.404 0.3457,-1.2958 0.8636,-2.4179 1.4687,-3.5411 0.6026,-1.0303 1.3593,-1.9619 2.2445,-2.7628 2.9335,-2.762 6.9917,-4.1434 12.3455,-4.1434zm40.4956 7.0804l0 0c-1.1221,1.3814 -3.6254,8.8918 1.6412,8.6347 4.8351,-0.2595 4.7486,-6.1311 4.317,-8.29 -0.4325,-2.5037 -4.5766,-1.8994 -5.9582,-0.3447zm5.6127 -7.0804l0 0c3.6254,0 6.3032,0.7762 7.9436,2.4169 1.036,0.8639 1.6403,1.9857 1.8995,3.3671 0.2596,1.2964 0.1728,2.8497 -0.2592,4.5772 -0.345,1.4668 -0.9493,2.8482 -1.7264,4.0576 -0.7771,1.2096 -1.8139,2.2454 -3.0225,3.1945 -2.9361,2.1584 -6.4761,3.1944 -10.7923,3.1944 -3.8864,0 -6.7355,-0.8627 -8.5485,-2.6778 -0.9503,-0.8626 -1.5548,-1.9858 -1.8138,-3.2786 -0.2596,-1.296 -0.1733,-2.7642 0.259,-4.404 0.3461,-1.2958 0.864,-2.4179 1.4684,-3.5411 0.6027,-1.0303 1.3598,-1.9623 2.2448,-2.7628 2.9354,-2.762 7.0795,-4.1434 12.3474,-4.1434zm-36.438 0.6043l0 0 2.3309 6.2164c0.7773,2.0725 1.5543,4.1447 2.3318,6.3031l-4.1445 6.9952 9.1529 0 15.2822 -19.5138 -8.8076 0c-0.7106,0.8852 -1.3733,1.8075 -1.9858,2.763 -0.6907,0.8626 -1.2958,1.8129 -1.9866,2.6768 -0.6043,0.9499 -1.1221,1.8126 -1.3814,2.5046l-0.173 0c0.0862,-0.4317 0,-1.2952 -0.173,-2.331l-0.5179 -2.8493c-0.0865,-0.9503 -0.2591,-1.8137 -0.4312,-2.7627 -3.1934,-0.0022 -6.3023,-0.0022 -9.4968,-0.0022zm-44.4667 -0.0868l0 0c-0.2595,0.8628 -0.4314,1.7274 -0.6907,2.5901 -0.2595,0.8638 -0.4323,1.7274 -0.6907,2.6764l5.4393 0c-0.6043,2.4182 -1.2085,4.8346 -1.8993,7.2525 -0.6044,2.4183 -1.2958,4.9228 -1.9001,7.3388l8.7213 0c0.6907,-2.416 1.296,-4.9205 1.8993,-7.3388 0.6044,-2.4179 1.295,-4.8343 1.8994,-7.2525l5.3538 0c0.1731,-0.949 0.4315,-1.8126 0.6043,-2.6764 0.2595,-0.8627 0.4324,-1.7273 0.6906,-2.5901l-19.4271 0zm96.7048 0l0 0c-0.2583,0.8628 -0.5173,1.7274 -0.6906,2.5901 -0.2591,0.8638 -0.431,1.7274 -0.6907,2.6764l5.4392 0c-0.6031,2.4182 -1.2938,4.8346 -1.899,7.2525 -0.6033,2.4183 -1.295,4.9228 -1.8991,7.3388l8.7212 0c0.6893,-2.416 1.2958,-4.9205 1.8994,-7.3388 0.605,-2.4179 1.2958,-4.8343 1.8989,-7.2525l5.3532 0c0.1728,-0.949 0.4324,-1.8126 0.6052,-2.6764 0.2596,-0.8627 0.4303,-1.7273 0.6898,-2.5901l-19.4274 0zm98.173 13.2961l0 0c0.1704,-1.7265 -0.259,-2.5891 -1.3828,-3.6253 -1.1211,-1.0368 -1.8124,-1.5546 -3.9713,-1.5546 -1.9012,0 -6.0442,0.5178 -7.3412,-0.6907 -1.7252,-1.6397 -0.1718,-2.9361 1.7294,-2.9361 2.0715,0 2.6756,0.0865 4.7471,0.0865 2.0717,0 4.1445,-0.0865 6.2174,-0.0865 0.0873,-1.0355 0.9493,-3.4536 1.0366,-4.5758 -2.3321,0.0864 -4.5782,0.0864 -6.9089,0.0864 -2.332,0 -4.5768,0 -6.8229,0.0868 -2.0717,0 -3.8841,0.5175 -5.3528,1.5541 -1.466,1.0359 -2.4153,2.3318 -2.7617,4.0581 -0.3449,1.5545 -0.1731,3.7998 0.9493,4.7489 1.1224,1.0354 2.5912,1.5554 4.4035,1.5554l2.9348 0c2.5912,0 3.8881,-0.0863 3.6277,1.6398 -0.2605,2.1588 -4.7501,1.7287 -6.3033,1.7287l-6.3062 0c-0.302,1.5051 -0.6471,3.0016 -1.0337,4.4881l15.7134 0c1.9855,0 2.9362,-0.6034 4.3176,-1.8993 1.473,-1.2964 2.3349,-2.8497 2.508,-4.6645z"/>
 </g>
</svg>
