<?xml version="1.0" encoding="UTF-8" standalone="no"?>
<!-- Created with Inkscape (http://www.inkscape.org/) -->

<svg
   version="1.0"
   width="763.17847"
   height="240.16479"
   id="svg3647"
   sodipodi:docname="vredestein-logo.svg"
   inkscape:version="1.4 (86a8ad7, 2024-10-11)"
   xmlns:inkscape="http://www.inkscape.org/namespaces/inkscape"
   xmlns:sodipodi="http://sodipodi.sourceforge.net/DTD/sodipodi-0.dtd"
   xmlns="http://www.w3.org/2000/svg"
   xmlns:svg="http://www.w3.org/2000/svg">
  <sodipodi:namedview
     id="namedview1"
     pagecolor="#ffffff"
     bordercolor="#000000"
     borderopacity="0.25"
     inkscape:showpageshadow="2"
     inkscape:pageopacity="0.0"
     inkscape:pagecheckerboard="0"
     inkscape:deskcolor="#d1d1d1"
     inkscape:zoom="1.3914503"
     inkscape:cx="365.44604"
     inkscape:cy="109.59788"
     inkscape:window-width="1920"
     inkscape:window-height="1017"
     inkscape:window-x="-8"
     inkscape:window-y="-8"
     inkscape:window-maximized="1"
     inkscape:current-layer="layer1" />
  <defs
     id="defs3649" />
  <g
     transform="translate(275.89731,-466.49856)"
     id="layer1">
    <path
       d="m 365.71847,607.09129 c -33.28918,-18.29702 -169.85959,-85.8396 -169.85959,-85.8396 0,0.008 -1.42301,-0.66097 -3.39035,-1.90512 -161.235984,-16.35301 -303.87948,43.51465 -354.43922,87.82248 161.35261083,-60.94853 347.36303,-61.28289 527.68916,-0.0778"
       id="path235"
       style="fill:#0066b3;fill-opacity:1;fill-rule:evenodd;stroke:none" />
    <path
       d="m 181.20106,506.71051 c -2.77603,-9.2457 4.54121,-21.98284 45.94856,-35.49758 39.93769,-13.03263 -122.26252,-1.28305 -273.140828,63.65458 57.402647,-19.3934 134.486435,-34.7744 227.192268,-28.157"
       id="path245"
       style="fill:#ed1c24;fill-opacity:1;fill-rule:evenodd;stroke:none" />
    <path
       d="m 384.68422,675.52034 c 0,12.58941 -0.32659,21.24412 -1.32194,31.13523 4.2846,-0.26439 6.1664,-0.54432 11.28304,-0.54432 5.45098,0 7.86156,0.40436 11.28302,0.54432 -0.99533,-9.89111 -1.32194,-18.54582 -1.32194,-31.13523 v -15.2799 c 0,-12.58938 0.32661,-21.25188 1.32194,-31.13522 -2.99378,0.27217 -5.83204,0.51321 -11.28302,0.51321 -5.451,0 -7.73716,-0.20217 -11.28304,-0.51321 0.99535,9.88334 1.32194,18.54584 1.32194,31.13522"
       id="path247"
       style="fill:#000000;fill-opacity:1;fill-rule:evenodd;stroke:none" />
    <path
       d="m 418.25333,665.88584 c 0,22.93153 -1.89734,37.51935 -2.57385,40.77751 2.01398,-0.33438 4.94554,-0.54432 6.94398,-0.54432 2.01401,0 4.87558,0.20994 7.01398,0.54432 -0.40435,-4.16017 -0.63764,-8.32034 -0.63764,-26.30632 0,-8.42921 0.0855,-13.60804 0.67653,-21.31409 9.12129,10.381 35.13209,41.06522 41.06521,47.53488 2.14619,-0.35771 4.46345,-0.45879 7.19283,-0.45879 2.66717,0 5.48211,0.21772 7.20838,0.54432 0,-29.99215 0,-44.84436 2.13841,-77.55813 -2.00623,0.34214 -4.19128,0.51321 -6.20527,0.51321 -2.00622,0 -4.25349,-0.17107 -6.25193,-0.51321 0.93312,5.0622 -0.0155,36.01858 -0.0155,53.89567 -0.0311,0.008 -34.33897,-40.79305 -44.60333,-53.6935 -2.0062,0.33439 -4.26903,0.31104 -6.27526,0.31104 -2.0062,0 -4.23014,-0.17107 -6.23637,-0.51321 0.2955,5.94089 0.55987,26.66401 0.55987,36.78062"
       id="path249"
       style="fill:#000000;fill-opacity:1;fill-rule:evenodd;stroke:none" />
    <path
       d="m 21.699125,706.58558 c 4.416804,0.0778 7.877125,0.0544 8.755813,0.0544 21.578482,-0.0389 43.646859,-12.57382 45.917473,-35.39648 1.93623,-19.63447 -10.435434,-42.13053 -48.110312,-42.13053 -14.548939,0 -23.3358584,0.521 -30.6064476,0.521 -5.4510016,0 -10.7542554,-0.2955 -14.3934294,-0.521 0.99533,9.89111 1.321911,18.54584 1.321911,31.13523 v 15.28768 c 0,12.58938 -0.326581,21.23634 -1.321911,31.12744 3.639174,-0.2255 8.9424278,-0.54432 14.3934294,-0.54432 3.8413537,0 9.3156797,0.15551 14.3778876,0.38101 -0.458788,-2.14617 -1.376363,-22.49603 -1.376363,-28.56135 l -0.08554,-19.93773 c 0,-6.07308 0,-19.86776 0.163291,-21.99841 3.242599,-0.21772 6.298584,-0.47433 9.191277,-0.27993 18.84908,1.21307 33.491358,15.55207 33.491358,32.71377 0,18.32032 -14.626714,32.64378 -25.396512,35.2954 -1.959575,0.42769 -3.950235,0.67651 -6.003107,0.73873"
       id="path251"
       style="fill:#000000;fill-opacity:1;fill-rule:evenodd;stroke:none" />
    <path
       d="m 305.53201,675.52034 c 0,12.58941 -0.3266,21.24412 -1.32193,31.13523 3.63918,-0.2255 7.71381,-0.54432 34.65776,-0.54432 15.20215,0 28.71689,0.42768 34.67333,0.54432 -0.33437,-1.34525 -0.66097,-2.48055 -0.66097,-4.83668 -0.008,-2.25505 0.3266,-3.48367 0.66097,-5.05443 -12.72935,1.01088 -32.91593,1.4619 -45.30316,1.4619 -0.33436,-4.50232 -0.55208,-7.83047 -0.55208,-12.55052 0,-4.82892 0.0622,-5.62985 0.21772,-8.53031 12.55828,0 32.41049,0.33437 44.97655,1.0109 -0.49765,-2.36391 -0.66097,-7.08398 0,-9.66561 -12.56606,0.45101 -30.5909,0.67651 -44.97655,0.90201 0,-8.21149 0,-23.66246 0.83204,-31.85838 4.95332,0 32.2472,0.78537 44.80548,1.34525 -0.33437,-1.6874 -0.69208,-2.89269 -0.66097,-5.05442 0,-2.02955 0.3266,-3.37481 0.66097,-4.72006 -4.46344,0.33438 -18.4914,0.51321 -34.67333,0.51321 -9.42454,0 -21.04194,0 -34.65776,-0.51321 0.99533,9.88334 1.32193,18.54584 1.32193,31.13522"
       id="path253"
       style="fill:#000000;fill-opacity:1;fill-rule:evenodd;stroke:none" />
    <path
       d="m -203.67353,685.5281 c 11.40741,-18.76357 22.66711,-39.04344 31.25963,-56.46175 0,0 7.42612,0 14.51007,0.0466 h 4.16796 c 16.69513,0 22.80709,1.00311 28.59246,3.81803 6.60962,3.25816 10.73869,8.2037 10.73869,14.83667 0,10.89422 -9.24571,17.86153 -25.61423,20.67645 10.5754,12.70605 23.14146,25.52094 35.20208,38.21142 -5.0622,-0.30325 -11.91287,-0.54432 -16.87398,-0.54432 -4.96111,0 -11.88955,0.31882 -16.85844,0.54432 -1.4308,0 -30.91749,-35.73862 -30.91749,-35.73862 l 0.47433,-4.60342 c 14.54118,0 26.0808,-5.5132 26.29077,-16.07306 0.1555,-7.7527 -3.958,-14.02017 -19.20679,-14.65782 -11.57076,18.67803 -29.81332,48.20361 -41.26741,71.07292 -2.48055,-0.2255 -8.818,-0.54432 -13.97353,-0.54432 -3.55364,0 -11.64848,0.31882 -13.95797,0.54432 -10.24879,-19.21457 -34.04346,-60.35755 -44.78993,-77.54257 5.13218,0.33436 16.95176,0.51322 21.74955,0.51322 4.79004,0 16.26747,-0.17886 21.05751,-0.51322 7.44166,16.73401 19.33119,37.65153 29.41672,56.4151"
       id="path255"
       style="fill:#000000;fill-opacity:1;fill-rule:nonzero;stroke:none" />
    <path
       d="m 125.99903,706.11125 c -26.936164,0 -39.198967,0.31882 -42.822599,0.54432 0.979787,-9.89111 1.321933,-18.53806 1.321933,-31.13523 v -15.2799 c 0,-12.58938 -0.342146,-21.24411 -1.321933,-31.12744 9.743361,0.10886 27.076129,0.51322 36.827279,0.51322 16.18969,0 32.38716,-0.17886 36.8506,-0.51322 -0.33437,1.34525 -0.67651,3.00933 -0.67651,5.0311 0,2.36391 0.34214,3.1415 0.67651,4.7356 -12.55828,-0.55988 -42.11497,-1.34525 -47.07608,-1.34525 -0.83204,8.2037 -0.83204,23.65468 -0.83204,31.86617 14.09794,-0.22551 33.88016,-0.44325 46.48511,-0.87869 l 0.75428,-0.0311 c -0.2255,1.41523 -0.35771,7.89267 0,9.66561 -12.55052,-0.66875 -34.67332,-1.00311 -47.23939,-1.00311 -0.0389,4.2146 -0.0389,2.48833 -0.0389,7.31723 0,4.72783 0.14775,8.6625 0.48211,13.15706 12.23948,0 41.9828,-0.31882 46.57066,-0.11664 l 20.87086,0.008 c 12.89265,0 19.26122,-1.12752 20.43541,-8.06374 2.97043,-17.50385 -35.93305,-12.22392 -32.76042,-38.05589 2.3017,-18.75579 22.7371,-22.02171 42.40268,-22.02171 9.68895,0 35.7853,0.0155 50.04654,0.0155 20.48984,0 26.21299,0.0544 40.24873,-0.27993 -0.43546,1.41523 -0.69207,2.56609 -0.67651,4.16795 0.0233,1.92845 0.25661,2.67496 0.75427,4.37014 -9.26903,-0.52878 -21.78845,-0.36549 -29.0668,-0.19442 -0.33436,1.57854 -0.33436,5.62208 -0.33436,9.89111 v 28.09481 c 0,12.58938 0.33436,21.24412 1.32191,31.13523 -3.63139,-0.2255 -7.70605,-0.46657 -13.16481,-0.46657 -5.451,0 -9.47121,0.24107 -13.11039,0.46657 0.99533,-9.89111 1.32191,-18.54585 1.32191,-31.13523 l 0.008,-27.98593 c 0,-4.26905 -0.10886,-8.42145 -0.60652,-9.99221 -5.21772,0 -8.92688,-0.0855 -19.10571,-0.17885 0,0 -6.41523,-0.0778 -20.88643,-0.24105 -9.65783,-0.1011 -14.42454,2.4961 -15.68424,7.41056 -4.47123,17.45719 37.38715,13.36699 33.41359,41.28295 -2.51164,17.58938 -25.8553,20.5598 -51.91276,20.60647 0,0 -28.46028,-0.23328 -43.47579,-0.23328"
       id="path257"
       style="fill:#000000;fill-opacity:1;fill-rule:nonzero;stroke:none" />
    <path
       d="m -101.32544,675.52034 c 0,12.58941 -0.32658,21.24412 -1.32191,31.13523 3.639173,-0.2255 11.562947,-0.54432 38.506895,-0.54432 15.202124,0 32.558241,0.42768 38.514679,0.54432 -0.334385,-1.34525 -0.668749,-2.48055 -0.668749,-4.83668 0,-2.35615 0.334364,-3.48367 0.668749,-5.05443 -12.729373,1.01088 -35.178762,1.4619 -47.57375,1.4619 -0.334384,-4.50232 -0.489893,-9.33124 -0.489893,-14.05128 0,-4.83671 0.03111,-4.54121 0.155509,-7.02955 12.5583,0 34.681106,0.33437 47.239385,1.0109 -0.497654,-2.36391 -0.653184,-7.08398 0,-9.66561 -12.558279,0.45101 -32.861498,0.67651 -47.239385,0.90201 0,-8.21149 0,-23.66246 0.824257,-31.85838 4.961108,0 34.525577,0.78537 47.083877,1.34525 -0.334385,-1.6874 -0.637643,-2.93158 -0.668749,-5.05442 0,-2.02955 0.334364,-3.37481 0.668749,-4.72006 -4.463454,0.33438 -22.317204,0.51321 -38.514679,0.51321 -9.751143,0 -27.107239,-0.38879 -38.506895,-0.51321 0.99533,9.88334 1.32191,18.54584 1.32191,31.13522"
       id="path259"
       style="fill:#000000;fill-opacity:1;fill-rule:evenodd;stroke:none" />
  </g>
</svg>
